<svg xmlns="http://www.w3.org/2000/svg"><defs><font id="Playball" horiz-adv-x="371"><font-face font-family="Playball" panose-1="2 0 0 0 0 0 0 0 0 0" ascent="950" descent="-300" alphabetic="0"/><glyph glyph-name="space" horiz-adv-x="300"/><glyph unicode="!" glyph-name="exclam" horiz-adv-x="351" d="M332 654l58-4q8 0 11 1-55-79-135-232t-91-187l-41-8q17 38 71 195t75 211q9 24 52 24zM159 49q-11-2-32-23T98-8Q49 8 49 33q0 18 21 35t50 17q41 0 41-25 0-3-2-11z"/><glyph unicode="&quot;" glyph-name="quotedbl" horiz-adv-x="373" d="M358 690q0-1-20-27t-61-88-50-79q-3-4-20-4t-17 3q5 7 78 194 5 12 47 12t43-11zm-138 1q0-2-20-29t-62-88-49-78q-1-4-18-4t-18 3q5 8 78 194 5 12 47 12t42-10z"/><glyph unicode="#" glyph-name="numbersign" horiz-adv-x="781" d="M192 8l-19 26-19 33 1 8 45 116H62q-1 0-1 5t18 32 28 28h118l57 147H133q-1 0-1 5t18 32 29 28h128l53 137q0 1 1 1 6 0 24-26t19-39v-2l-27-71h157l53 137q0 1 1 1 5 0 24-26t19-39v-2l-28-71h145q1 0 1-5t-18-32-29-28H578l-57-147h155q1 0 1-5t-18-32-29-28H496L426 9l-1-1q-6 0-25 26t-19 33 1 8l45 116H269L199 9l-1-1q-6 0-25 26zm260 248l56 147H351l-56-147h157z"/><glyph unicode="$" glyph-name="dollar" horiz-adv-x="455" d="M445 559q7-11 7-28t-10-31-31-13h-6q0 37-45 62l-56-147 19-13q85-59 85-126t-64-123-159-56h-4L126-58q-1-3-22-3t-22 8l55 142q-41 9-66 33t-26 59 18 63 50 28q7 0 11-1-22-16-22-40t15-45 45-32l74 193q-74 66-74 117t45 93 127 44l38 98q2 3 23 3t21-7v-1l-37-96q48-9 66-39zM269 431l50 131h-8q-30 0-51-18t-22-51 31-62zm19-125l-17 12-65-168q53 3 86 30t33 63-37 63z"/><glyph unicode="%" glyph-name="percent" horiz-adv-x="670" d="M577 672q-31-46-85-87L160 0q-2-5-29-5t-27 4v1l328 575q-14-4-28-4-41 0-66 25 1-8 1-26 0-71-44-135t-117-65q-46 0-69 31t-23 81q0 73 45 135t115 63q45 0 72-34t61-34 68 21 52 52q10 17 46 17t36-20q0-2-4-10zm9-526q-15-61-56-106T436-5t-75 31-23 82q0 73 45 135t115 63q48 0 71-31t23-80q0-25-6-49zM224 423l22 25 35 60 12 66q0 62-42 62-34 0-63-48t-29-102q0-29 11-46t32-17zM476 49l23 25 34 60 12 65q0 62-42 62-34 0-63-48t-29-106 41-58q24 0 47 25z"/><glyph unicode="&amp;" glyph-name="ampersand" horiz-adv-x="789" d="M387 339l-44 7q-91 0-155-69t-64-140q0-55 36-92T261 8q107 0 171 57t64 119-55 62q-17 0-30-21t-14-37q-16 19-16 43t27 50 72 39l151 46q101 30 114 61 3-6 3-19 0-44-30-68t-70-31q-143-25-190-49 22 6 34 6 35 0 54-22t20-53q0-68-57-121T379-8 255-32t-88 7T93-2 35 44t-22 73q0 102 84 174t192 77q-36 18-56 48t-21 64q0 61 44 107t103 67 118 21 96-28 39-68-26-65-57-26q-13 0-19 5 45 25 45 72 0 59-79 59t-134-51-55-108q0-42 26-64t58-24h20q27 0 27-11 0-8-10-17t-21-10z"/><glyph unicode="'" glyph-name="quotesingle" horiz-adv-x="143" d="M256 650q-28-65-75-131t-73-67q-7 0-14 4 61 91 77 196 1 13 43 13t42-13v-2z"/><glyph unicode="(" glyph-name="parenleft" horiz-adv-x="620" d="M612 706l-8-27q-117-29-223-116T208 356t-67-243T236-9q17 0 33 2l-7-30q-42-16-99-16T78-10 50 97q0 97 49 201t129 187 181 144 203 77z"/><glyph unicode=")" glyph-name="parenright" horiz-adv-x="574" d="M563 557q0-169-132-335-86-108-201-181T1-52l8 27q180 46 321 214t141 350q0 124-94 124-19 0-33-2l7 30q42 16 99 16t85-43 28-107z"/><glyph unicode="*" glyph-name="asterisk" horiz-adv-x="652" d="M598 586l24-74-269-99-1-3 210-96-69-75-165 143-7-3-43-240h-91l102 240-4 3L32 239 8 313l269 96 1 4-210 98 69 74 166-144 6 2 44 243h90L341 443l4-2 253 145z"/><glyph unicode="+" glyph-name="plus" horiz-adv-x="722" d="M108 376l238-8q55 137 77 206 3 12 41 26t48 14 10-1v-1q-97-214-110-244 226 2 288 5 1 0 1-2 0-9-25-36t-38-27l-248 9q-28-57-56-133T297 74q-3-12-41-26t-49-14-10 1v1q51 94 129 282-188 0-234-3t-47-3q0 9 25 36t38 28z"/><glyph unicode="," glyph-name="comma" horiz-adv-x="271" d="M246 64Q218-1 171-67t-73-67q-7 0-14 4 61 91 77 196 1 13 43 13t42-13v-2z"/><glyph unicode="-" glyph-name="hyphen" horiz-adv-x="490" d="M200 288h279q1 0 1-5t-18-32-29-28H154q-1 0-1 5t19 32 28 28z"/><glyph unicode="." glyph-name="period" horiz-adv-x="271" d="M222 49q-11-2-32-23T161-8q-49 16-49 41 0 18 21 35t50 17q41 0 41-25 0-3-2-11z"/><glyph unicode="/" glyph-name="slash" horiz-adv-x="455" d="M678 694L122-58q-2-3-27-3t-25 7v1l556 752q3 3 27 3t25-7v-1z"/><glyph unicode="0" glyph-name="zero" horiz-adv-x="610" d="M596 340Q554 197 450 93T211-12q-93 0-139 63T25 214q0 130 71 258 77 138 194 193 65 30 136 30 95 0 142-61t48-160q0-65-20-134zM330 36l62 72 96 174 33 185-33 134-100 51-128-69-96-168-34-189 32-140 100-50z"/><glyph unicode="1" glyph-name="one" horiz-adv-x="349" d="M264 708h126q-54-125-142-379T145 0H24q32 72 190 492l52 140-142-132H89l175 208z"/><glyph unicode="2" glyph-name="two" horiz-adv-x="568" d="M600 547q-21-132-214-231-67-34-105-54t-95-60-73-68h9q38 0 90-17t121-29 97-11q99 0 100 73h27q-2-70-45-118T395-17 272 20q-11 11-41 31t-42 25q-29 15-48 15t-30-16-11-35T90 4 64-12q-34 0-34 38 0 98 108 191 50 43 104 83 149 110 212 191 37 48 37 94t-25 72-78 26-103-51-50-108q0-16 4-28-23-16-43-16t-33 15-13 42q0 48 28 84t70 57q84 38 164 38 51 0 91-11t69-45 30-85q0-8-2-28z"/><glyph unicode="3" glyph-name="three" horiz-adv-x="600" d="M389 380q80-13 122-58t42-109-49-117-120-82-139-27T132 0 53 48t-33 80 26 80 66 35q19 0 39-10-38-55-38-106t38-79 98-29q77 0 131 54t55 124-42 114-107 45q-38 0-78-18-6-3-14-3t-15 8-7 23 14 25 47 12 71-17q75 19 124 74t50 125q0 46-28 75t-87 30-102-46-44-107q0-19 6-39-13-5-28-5t-30 18-15 49q0 51 40 88 74 69 200 69 203 0 203-139 0-61-54-116t-150-82z"/><glyph unicode="4" glyph-name="four" horiz-adv-x="687" d="M648 269q-50-52-149-52-17 0-37 3Q416 77 397 0H278q24 54 90 233-30 7-79 21-110 33-151 33t-59-14-19-31q-1-45-29-45-11 0-19 11t-8 31q0 45 43 67l469 402h124q-73-173-154-418 137 10 137 83 0 17-9 29 11 8 27 8t29-20 14-42q0-41-36-79zM527 659L125 320q74-4 133-14t132-14l137 367z"/><glyph unicode="5" glyph-name="five" horiz-adv-x="583" d="M122 415q0 21 128 293h190q27 0 66 2l40 3q27 0 37-6t11-30-22-75l-28-72h-20l5 17q12 31-1 57-7 17-44 30-23 9-124 9h-85q-64-137-89-197 63 20 117 20 112 0 181-58t69-144q0-69-30-123t-81-86Q340-8 221-8 134-8 74 32T14 153q0 47 27 85t71 38q25 0 45-14-45-49-45-114t37-96 95-30q76 0 131 64t56 150-54 137-133 51q-21 0-60-10t-50-10-12 11z"/><glyph unicode="6" glyph-name="six" horiz-adv-x="583" d="M589 588q0-42-21-55t-37-13q-29 0-43 33 26 17 26 52t-22 52-59 17q-78 0-150-78T167 392q78 64 193 64 87 0 136-48t50-128q0-135-93-210T241-6 77 46 31 189t30 181 81 167 128 126 151 50 121-31 47-94zM310 413q-88-4-133-72t-45-166q0-64 29-105t85-42q83 0 138 73t56 160q0 67-34 109t-96 43z"/><glyph unicode="7" glyph-name="seven" horiz-adv-x="539" d="M165 713l111-5h253q15 0 15-22t-18-46-75-95-91-115Q259 299 220 228t-39-116q0-20 10-34t25-15 26 3q-9-40-38-58t-65-19-61 23-26 68 29 99 73 105 95 102 95 94q103 97 103 140 0 4-2 14H233q-51 0-81-14t-39-35-14-41-12-35-22-15-14 7q0 2 3 9t7 25 10 42q20 97 37 116t57 20z"/><glyph unicode="8" glyph-name="eight" horiz-adv-x="587" d="M440 394q100-57 100-156T444 64 223-11q-94 0-156 48T4 161t60 139 158 96q-73 49-73 123 0 87 69 144t188 57q89 0 142-39t53-105q0-122-161-182zm92 224l-41 33-99 33-107-35-49-80 45-86 105-56q142 54 146 145 0 46-41 79zM284 343q-181-72-181-190 0-51 39-84t111-34 133 45 62 128q0 60-52 92-38 23-112 43z"/><glyph unicode="9" glyph-name="nine" horiz-adv-x="614" d="M467 126Q356-13 180-13 20-13 20 107q0 33 20 60t54 27q19 0 37-9-20-29-20-77t24-68 64-21 79 22q70 39 109 100t81 169q-79-57-174-57t-155 56-59 146q0 122 80 190t200 69q236 0 236-217 0-92-36-196t-93-175zm26 458l-35 47-105 47-119-67-50-141 39-125 101-50 100 31 54 77 15 114z"/><glyph unicode=":" glyph-name="colon" horiz-adv-x="284" d="M222 49q-11-2-32-23T161-8q-49 16-49 41 0 18 21 35t50 17q41 0 41-25 0-3-2-11zm104 305q-11-2-32-23t-29-34q-49 16-49 41 0 18 21 35t50 17q41 0 41-25 0-3-2-11z"/><glyph unicode=";" glyph-name="semicolon" horiz-adv-x="342" d="M353 337q-11-2-32-23t-29-34q-49 16-49 41 0 18 21 35t50 17q41 0 41-25 0-3-2-11zM246 64Q218-1 171-67t-73-67q-7 0-14 4 61 91 77 196 1 13 43 13t42-13v-2z"/><glyph unicode="&lt;" glyph-name="less" horiz-adv-x="479" d="M457 577q1 1 3 1t2-10-15-32q-28-33-141-113T124 301Q312 167 362 80q1-2 1-6 0-14-23-33t-35-20q-2 0-3 1Q170 171 51 257q-25 17-25 28t30 28q207 117 401 264z"/><glyph unicode="=" glyph-name="equal" horiz-adv-x="531" d="M194 425h319q1 0 1-5t-17-29-27-24H151q-1 0-1 5t17 29 27 24zm-54-187h319q1 0 1-5t-17-29-27-24H97q-1 0-1 5t17 29 27 24z"/><glyph unicode="&gt;" glyph-name="greater" horiz-adv-x="479" d="M492 342q25-17 25-28t-30-29Q275 165 86 22q-2-2-4-2t-2 5q0 21 16 37 27 33 137 111t186 125q-69 48-139 110t-99 111q-2 4-2 6 0 14 23 33t36 20q2 0 3-1 132-149 251-235z"/><glyph unicode="?" glyph-name="question" horiz-adv-x="551" d="M211 235l1-14q0-12-12-20t-26-9q-23 0-23 27 0 54 65 103l24 16q130 83 178 151 22 32 22 67t-23 60-63 25q-28 0-74-25-23-13-40-39t-17-51 7-40q-14-8-32-8t-35 18-17 48q0 45 40 76 70 55 180 55 188 0 188-119 0-69-43-104t-117-65q-75-33-113-56-70-45-70-96zM195 49q-11-2-32-23T134-8Q85 8 85 33q0 18 21 35t50 17q41 0 41-25 0-3-2-11z"/><glyph unicode="@" glyph-name="at" horiz-adv-x="917" d="M812 190q-30-46-87-77T616 82t-80 27-29 83q0 34 12 79-94-149-167-149-29 0-49 25t-21 67q0 109 68 205t166 97q33 0 51-15t33-57q17 34 31 46t48 12h56q-53-42-101-159t-48-171q0-65 48-65 71 0 121 88t50 184q0 118-71 200t-201 83q-104 0-189-59T212 453t-46-180 25-147 67-92q84-66 197-66t223 56 153 126q3 6 7 6t4-17q0-44-29-80T739 0 639-38q-99-27-196-27-158 0-256 76T88 245q0 81 31 158t86 140 141 101 184 38q157 0 251-84t94-209q0-101-63-199zM574 393l22 43q-3 20-20 31t-41 11q-72 0-118-74t-46-149q0-30 10-47t25-17q32 0 83 69t85 133z"/><glyph unicode="A" glyph-name="A" horiz-adv-x="750" d="M468 698h224q-25-25-87-38t-140-20-102-13q-107-25-107-128-31 32-31 69 0 130 243 130zm275 0h72q-46-44-93-240t-48-304q0-76 28-105 12-13 30-13t38 13l6-9q-14-20-50-34T655-9q-52 0-71 37t-22 99q0 51 13 132H346Q197 101 112 0H12q94 86 292 282 255 254 335 352 20 24 30 33t30 20 44 11zM640 557Q526 450 390 309h192q18 99 58 248z"/><glyph unicode="B" glyph-name="B" horiz-adv-x="580" d="M614 548q-11-107-134-160-29-12-59-18 156-29 156-148 0-101-107-170T203-17Q125-17 73 7T21 89q0 70 74 244t137 297q10 20 15 28l-36-5q-78-11-143-37t-89-65q-1-3-5-3t-4 5 1 8Q9 665 110 688q46 10 123 10h197q91 0 137-39t47-98v-13zm-104 26q-9 88-139 94-47-61-124-229t-98-242-21-113 22-50 73-12q95 0 166 51t71 154q0 50-24 86t-72 42q-62-17-120-17-17 0-17 7 0 23 31 31t59 9 55-4q65 20 101 72t37 108v13z"/><glyph unicode="C" glyph-name="C" horiz-adv-x="680" d="M716 556q-16-41-59-69t-91-28q-22 0-36 9t-14 25 12 32q11-4 25-4 39 0 72 27t33 65q0 58-77 58-102 0-199-70T226 420t-60-227q0-178 162-178 101 0 214 78t150 169q19-13 19-35 0-45-64-111T486 10 288-30Q53-30 53 189q0 83 37 173t100 168 157 128 187 50 141-31 49-81q0-18-8-40z"/><glyph unicode="D" glyph-name="D" horiz-adv-x="710" d="M723 358q-19-118-89-205T464 23 247-20Q30-20 30 91q0 120 212 539 10 20 15 28-79-6-161-35t-107-72q-1-3-5-3t-4 5 1 8q38 104 139 127 46 10 123 10h205q142 0 211-77t69-196q0-29-5-67zm-105-8q11 46 11 88 0 97-57 161-32 35-87 51t-104 17q-48-63-114-207T159 187q-21-63-21-101t20-51 71-12q139 0 248 93t141 234z"/><glyph unicode="E" glyph-name="E" horiz-adv-x="570" d="M441 698l109 5q31 0 34-12t4-19q0-35-24-88t-35-54-11 8l8 60q0 31-25 49t-60 18-52-5-27-21q-73-109-133-248h261l1-1q0-7-14-27t-23-21H207q-27-66-53-148T128 86t16-39 54-13q292 0 346 114 2 3 7 3t6-6-2-16q-28-87-83-110-29-12-54-15t-66-4H50Q19 0 19 47q0 81 89 295H53q-8 0-8 5 0 10 19 27t31 17h34q92 221 133 269-94-12-171-40t-102-69q-1-3-5-3t-4 5 1 8q38 104 139 127 46 10 123 10h198z"/><glyph unicode="F" glyph-name="F" horiz-adv-x="380" d="M471 698l109 5q31 0 34-12t4-19q0-35-24-88t-35-54-11 8l8 60q0 30-28 48t-64 19-51-5-28-21q-47-67-124-248h222l1-1q0-7-14-27t-23-21H240q-97-236-97-320 0-15 4-22H18q27 114 120 342H83q-8 0-8 5 0 10 19 27t31 17h34q85 201 131 269Q64 628 19 551q-1-3-5-3t-4 5 1 8q38 104 139 127 46 10 123 10h198z"/><glyph unicode="G" glyph-name="G" horiz-adv-x="740" d="M792 313q-7-36-24-53t-46-22Q620-38 323-38q-131 0-201 61T51 196q0 84 39 174t103 166 159 123 184 49 139-31 49-83-49-93-109-42q-22 0-36 9t-14 25 12 32q11-4 25-4 39 0 72 27t33 65q0 58-75 58t-151-45-131-116-91-161-36-176 44-127T335 5q105 0 198 64t109 166q-179 0-215-5 5 9 12 23t27 37 33 23h293z"/><glyph unicode="H" glyph-name="H" horiz-adv-x="680" d="M793 698h64q-50-39-125-200Q597 211 597 95q0-59 37-59 16 0 39 13h1q3 0 3-6 0-19-50-35T545-9q-61 0-61 65 0 85 81 286H282q-33-77-66-174T183 22q0-15 4-22H58q28 121 118 336 120 286 155 325-85-2-172-34T57 549q-1-3-4-3-9 0-9 13 0 2 2 10 19 55 55 85t70 37 86 7h226q-68-52-181-307h283q94 220 133 277 7 11 26 20t49 10z"/><glyph unicode="I" glyph-name="I" horiz-adv-x="280" d="M237 698h226q-69-53-190-328-31-70-70-183T163 21q0-14 4-21H38q28 121 118 336 120 286 155 325-85-2-172-34T37 549q-1-3-4-3-9 0-9 13 0 2 2 10 19 55 55 85t70 37 86 7z"/><glyph unicode="J" glyph-name="J" horiz-adv-x="390" d="M-39-3l-1-6q0-28 14-41t36-14q121 0 294 428 3 8 13 34t38 80 66 108 70 66q-29 8-103 8t-165-32-107-79q-2-3-4-3-9 0-9 13 0 2 2 10 19 55 55 85t70 37 86 7h47l225-1q-59-45-82-69t-48-73-47-111-37-108-27-84-34-92-42-97-50-88-59-76q-67-69-143-69-47 0-75 26t-29 71q0 21 11 44t35 26z"/><glyph unicode="K" glyph-name="K" horiz-adv-x="640" d="M871 687q-64 0-210-92T398 398q33-110 119-232T667 2q-15-3-48-3l-85 3q-28 0-75 64t-83 144-45 125q-57-57-96-113-16-23-37-91t-22-96 4-35H51q32 123 112 334t145 303q0 1 17 24-85-2-172-34T51 549q-1-3-4-3-8 0-8 13 0 2 8 27t30 52 53 40q49 20 122 20h226q-50-38-118-168T249 292q41 58 109 128t147 135 162 108 146 43 63-14q0-5-5-5z"/><glyph unicode="L" glyph-name="L" horiz-adv-x="570" d="M564 129q-28-87-82-110-29-12-54-15t-66-4H59Q19 0 19 56q0 143 239 574 18 29 19 31-85-2-172-34T3 549q-1-3-4-3-9 0-9 13 0 2 8 27t32 52 52 40q49 20 121 20h227q-41-31-105-147T199 297 137 99q0-65 71-65 290 0 346 114 2 3 5 3 7 0 7-10 0-2-2-12z"/><glyph unicode="M" glyph-name="M" horiz-adv-x="840" d="M966 698h62q-45-35-136-216Q757 210 757 91q0-55 35-55 16 0 39 13h1q3 0 3-5 0-19-50-36T702-9q-67 0-67 73 0 127 204 513-40-38-54-54-96-107-286-354-40-51-55-64t-39-13-57 15q25 32 25 194t-20 296q-36-67-130-298T129 9q0-7 1-9H38q57 146 163 385t129 284q-91 0-177-36T51 549q-1-3-4-3-8 0-8 13 0 2 8 27t30 52 53 40q49 20 121 20h127q30 0 47-10t25-47 13-173 7-191-2-75q143 179 370 449 40 47 128 47z"/><glyph unicode="N" glyph-name="N" horiz-adv-x="640" d="M858 697q-40-26-112-168T617 233 560 18q0-13 2-18h-63q-3 58-20 101t-27 65-31 72-39 90q-52 121-59 206-66-147-130-311T129 9q0-7 1-9H38q57 146 163 385t129 284q-91 0-177-36T51 549q-1-3-4-3-8 0-8 13 0 2 8 27t30 52 53 40q49 20 121 20h169q-14-23-14-56 0-74 57-208 52-125 61-159t12-46 4-26 2-19q13 32 223 514 2 5 18 5t44-3 31-3z"/><glyph unicode="O" glyph-name="O" horiz-adv-x="763" d="M778 303Q712 153 590 61T311-32Q63-32 63 187q0 99 41 194t110 167 161 116 190 44q127 0 190-62t64-156-41-187zm-42 196q0 163-146 163-106 0-202-73T236 406t-56-220q0-79 35-128T326 9t154 46 132 117 89 159 35 168z"/><glyph unicode="P" glyph-name="P" horiz-adv-x="490" d="M664 548q-6-66-42-115t-92-77q-107-54-248-54-25 0-46 3-83-210-83-283 0-15 4-22H28q28 121 118 336 120 286 155 325-85-2-172-34T27 549q-1-3-4-3-9 0-9 13 0 2 2 10 19 55 55 85t70 37 86 7h253q91 0 137-39t47-98v-13zM326 321l71 25 118 76 46 123q0 114-138 123-66-82-160-298l-21-49h12q72 0 143 25z"/><glyph unicode="Q" glyph-name="Q" horiz-adv-x="763" d="M798 303Q718 122 568 33q8-18 17-60t18-76 26-59 42-27 40 16q8-16 8-30 0-33-28-55t-67-22-63 18-37 53-17 66-8 76-7 64q-76-29-161-29Q83-32 83 187q0 99 41 194t110 167 161 116 190 44q128 0 191-62t63-156-41-187zm-42 196q0 163-140 163-78 0-155-45T328 502t-90-156-35-165 34-124 105-47 139 34q-10 27-28 41t-37 14l-27-4q-9 0-9 6 0 13 19 19t41 7q56 0 98-47 97 73 157 191t61 228z"/><glyph unicode="R" glyph-name="R" horiz-adv-x="610" d="M645 621v-59l-35-104q-62-82-191-106l-32-6Q437 172 597 2q-15-3-46-3l-77 3q-40 0-84 78t-71 160-26 109q0 15 14 16 235 29 242 184 0 55-32 85t-107 34q-78-105-173-336-94-235-94-310 0-15 4-22H18q28 121 118 336 120 286 155 325-85-2-172-34T17 549q-1-3-4-3-9 0-9 13 0 2 2 10 19 55 55 85t70 37 86 7h243q92 0 138-38z"/><glyph unicode="S" glyph-name="S" horiz-adv-x="523" d="M531 716l40-30 40-72-28-79-80-37-51 43q0 4 2 16 27 0 47 21t20 46-24 41-58 16q-58 0-96-35t-38-82q0-25 18-55t34-47 54-52 45-42q76-76 76-165T451 47 257-20q-92 0-148 30t-57 94q0 35 23 64t65 29 58-30q-35-28-35-67t26-61 70-22q60 0 105 43t46 108-86 157q-1 2-35 37t-56 73-23 88q0 87 68 140t160 53z"/><glyph unicode="T" glyph-name="T" horiz-adv-x="400" d="M605 627l-141 6q-10 0-66-119t-97-232-41-161 31-50 80 65q5 6 10 6t5-9-13-33-36-51-57-49-72-22q-55 0-55 76 0 94 95 320 68 159 125 264h-13l-103 2q-86 0-150-22-35-12-55-35t-21-57l8-42q0-10-10-10-13 0-21 25t-8 45q0 47 22 80t60 50q72 32 159 32t197-10 200-11 117 28q3-7 3-14 0-33-42-52t-111-20z"/><glyph unicode="U" glyph-name="U" horiz-adv-x="710" d="M308 630q18 29 19 31-85-2-172-34T53 549q-1-3-4-3-9 0-9 13 0 2 8 27t32 52 52 40q49 20 121 20h227q-46-35-113-162T260 312q-55-127-55-191t51-65q43 0 111 61t134 151q130 177 183 275t82 127 64 28h62q-47-36-137-216Q620 210 620 91q0-55 35-55 17 0 40 13h1q3 0 3-6 0-19-50-35T568-8q-64 0-64 74 0 37 26 118t66 169Q447 131 374 66 293-7 224-7 109-7 109 104q0 82 60 233t139 293z"/><glyph unicode="V" glyph-name="V" horiz-adv-x="450" d="M580 698h90q-33-54-191-296T299 126t-32-50-14-23-14-20-17-18Q203 0 182 0h-64q16 31 19 70t4 84 4 95 3 106q0 265-60 265-21 0-43-35l-1-1q-4 0-4 6v1q12 37 55 78t75 42q49 0 65-79t16-231-12-290q79 111 191 307t150 280z"/><glyph unicode="W" glyph-name="W" horiz-adv-x="1000" d="M1103 607v-16q0-101-61-230T892 134q-48-52-112-90T649 6Q525 6 525 192q0 68 18 158-81-160-155-246Q294-4 191-4q-47 0-77 35T83 143q0 101 71 249t171 237q18 17 45 27-38-8-117-16t-105-15Q41 601 41 497q-31 32-31 69 0 132 254 132h205q2 0 2-3t-12-18-24-21q-43-26-99-108T234 354t-46-202 63-89q71 0 222 224 31 47 71 140t56 124 57 62 76 32 35-10q-53-72-100-195t-47-235q0-137 81-142 52 0 102 50t85 115 65 148q51 137 51 218t-53 81q-16 0-36-7 2 18 24 29t59 12 69-25 35-77z"/><glyph unicode="X" glyph-name="X" horiz-adv-x="560" d="M790 695Q619 548 446 373q59-222 102-327 16-38 23-46H430l-75 280Q223 141 108 0H0q202 185 343 327l-67 261q-11 43-48 43t-76-39q-1-1-3-1-7 0-7 8t3 12q34 33 82 59t83 27 49-15 20-31 18-71 37-161q128 131 241 260 16 17 63 17h27q17 0 25-1z"/><glyph unicode="Y" glyph-name="Y" horiz-adv-x="684" d="M756 698q-94-65-186-169-114-129-182-278-38-85-56-171-8-37-8-55t4-25H199q4 17 39 124t36 154-23 128-61 146-75 67q-45 0-104-78-1-1-2-1-5 0-5 8t1 9q35 71 74 104t99 34 87-31 54-124 55-203q21 29 112 159t131 182q16 21 82 21h30q19 0 27-1z"/><glyph unicode="Z" glyph-name="Z" horiz-adv-x="683" d="M800 698Q559 488 193 128q28-14 82-25 136-31 214-31 125 0 125 72 0 19-14 29 0 2 3 6t6 4q28-1 49-21t22-48q0-48-49-87T510-13 370 12 249 62t-74 26-68-49-71-50Q20-11 10 0T0 29q0 30 31 49 126 78 328 270t289 280q-36-16-89-28t-85-12-99 6-90 7-54-25-33-60q0-6-10-6-7 0-7 20 0 41 31 88t61 65 77 18 128-18 132-18 92 18 64 19 34-4z"/><glyph unicode="[" glyph-name="bracketleft" horiz-adv-x="455" d="M280 712h243l-16-48H354L119-29h153l-16-48H13q255 754 267 789z"/><glyph unicode="\" glyph-name="backslash" horiz-adv-x="455" d="M170 699L424-53q1-3-19-5t-42-3-23 3L86 694q-1 3 19 5t41 3 24-3z"/><glyph unicode="]" glyph-name="bracketright" horiz-adv-x="455" d="M280 712h243L256-77H13l16 48h153l235 693H264l16 48z"/><glyph unicode="^" glyph-name="asciicircum" horiz-adv-x="531" d="M527 491v-1q0-6-14-17t-25-12q-20 0-53 56t-57 108q-50-50-121-108t-89-58q-6 0-6 1t1 3q118 96 216 202 13 15 19 15t17-18q35-75 112-171z"/><glyph unicode="_" glyph-name="underscore" horiz-adv-x="758" d="M0-100h758q1 0 1-5t-19-32-28-28H-46q-1 0-1 5t18 32 29 28z"/><glyph unicode="`" glyph-name="grave" horiz-adv-x="531" d="M403 580q-43 22-59 29t-17 9q0 6 20 17t28 11 12-2q18-13 53-38l57-43q23-17 30-20 0-3-10-7t-12-5-31 14l-71 35z"/><glyph unicode="a" glyph-name="a" horiz-adv-x="473" d="M445 400l50-1h10q-33-27-81-136t-48-160q0-26 18-26 58 0 148 171 4 7 7 7 6 0 6-18t-10-36Q422-6 339-6q-54 0-54 83 0 62 21 122Q192-3 95-3 28-3 28 89q0 70 30 142t88 122 125 51q32 0 60-14t37-47q11 23 34 40t43 17zm-83-66q-10 32-47 32-66 0-128-91t-62-164q0-31 24-31 26 0 61 32t63 77q62 98 89 145z"/><glyph unicode="b" glyph-name="b" horiz-adv-x="443" d="M520 256q6 0 6-18t-6-29l-22-37q-49-81-80-108-34-31-66-31-42 0-56 39-41-41-83-61t-94-21T46 6 24 61t12 88q31 132 104 310t115 190q13 3 47 3t42 2q-39-29-105-170T138 213q108 191 204 191 68 0 68-97t-82-199q1-17 10-27t23-10 30 12 25 22 23 28 33 48 32 53 16 22zm-222 63q-3 1-15 1t-47-26-81-99-46-121 29-48q53 0 114 102t61 162q0 25-15 29z"/><glyph unicode="c" glyph-name="c" horiz-adv-x="358" d="M434 256q6 0 6-19t-16-47-26-42-33-47-40-46-43-33q-44-32-114-32T66 25t-32 93q0 105 74 192t176 88q45 0 72-23t27-56-18-57-41-24q-45 0-45 37 0 12 25 23 10 4 18 15t8 29q0 26-28 26-60 0-119-87t-59-168 71-82q99 0 193 153 19 30 31 51t15 21z"/><glyph unicode="d" glyph-name="d" horiz-adv-x="476" d="M601 654q-33-24-86-134t-95-233-41-178q0-32 17-32t42 22 37 37 29 45 32 53 16 23q7 0 7-19-1-35-83-146-27-36-65-67T342-6q-53 0-53 79 0 58 29 149-46-91-105-158T95-3Q28-3 28 89q0 70 30 142t88 122 123 51 92-44q28 55 57 127t39 93 14 32 12 19q11 14 26 17t50 4 42 2zM356 348q-12 18-40 18-45 0-90-45t-73-105-28-105q0-31 24-31 81 0 207 268z"/><glyph unicode="e" glyph-name="e" horiz-adv-x="358" d="M436 260q6 0 6-19t-16-47-31-51-42-56-51-51q-63-46-126-46T73 22 34 122q0 102 75 189t175 87q45 0 72-23t27-57q0-56-53-90t-125-34q-42 0-62 11-19-51-19-90 0-84 71-84 42 0 86 32t76 73 72 117q4 7 7 7zm-106 79q0 29-28 29-39 0-87-48t-48-78q0-20 38-20t79 37 46 80z"/><glyph unicode="f" glyph-name="f" horiz-adv-x="339" d="M133 313Q58 170 50 170q-5 0-5 16t6 29q49 84 74 160 4 13 9 17t17 5h8l88-7q6 15 20 55t23 61 24 57 29 57 34 47 42 41q51 34 110 34 104 0 104-77 0-29-16-52t-44-23q-13 0-22 7t-10 16 15 31 15 37-12 26-30 10q-30 0-60-32t-55-84q-44-91-79-194-1-5-2-7-3-8-5-14 158 0 180 14-13-32-56-42t-138-12l-29-84Q223 84 189 18T125-97t-61-79q-68-72-141-72-49 0-72 23t-24 51 13 48 29 19 24-7 8-16-10-27-11-32 7-22 25-9 42 17 48 51Q88-25 229 345h-28q-51 0-68-32z"/><glyph unicode="g" glyph-name="g" horiz-adv-x="436" d="M472 400h40q-21-14-46-61t-42-92-46-125Q316-56 270-114t-103-90-105-32q-100 0-100 63 0 25 15 47t42 22 35-21q-10-6-15-21t-6-28 10-23 28-9q48 0 87 48t66 113q7 17 96 264Q202-3 98-3 30-3 30 89q0 70 30 142t88 122 125 51q31 0 59-14t37-46q15 32 35 44t68 12zm-107-65q-10 32-47 32-66 0-128-92t-63-165q0-30 24-30 26 0 61 32t63 77q90 139 90 146z"/><glyph unicode="h" glyph-name="h" horiz-adv-x="438" d="M510 201Q387-6 302-6q-59 0-59 68 0 79 63 225 14 37 14 51 0 20-18 20-12 0-40-14t-55-41-43-62-28-62-22-63-19-61T77 0h-97Q7 69 57 220t87 238 70 146 79 100 94 40 50-47q0-33-27-87-58-114-194-264 54 39 85 51t61 12q57 0 57-50 0-20-7-37t-15-39-14-36-15-38-14-41q-13-42-13-67t17-25q60 0 150 174 3 7 7 7t5-18-10-38zM389 719q-35 0-91-111T187 353q137 161 187 264 28 63 28 82t-13 20z"/><glyph unicode="i" glyph-name="i" horiz-adv-x="217" d="M322 532h-4q-20 0-38-17t-27-35q-26 10-26 36t24 52 46 27 33-10 11-25-19-28zM186 400l50-1h10q-16-12-42-65t-40-80-29-73-17-75 19-29q13 0 36 17t39 37 33 50 32 52 16 22q6 0 6-18t-10-36q-37-62-67-103t-70-73T81-6Q25-6 25 72q0 121 83 268 35 60 78 60z"/><glyph unicode="j" glyph-name="j" horiz-adv-x="215" d="M206 390h40q-22-13-35-38t-20-39-18-43l-17-44q-19-50-34-94t-20-59-20-50-25-54-28-51-34-50-39-40-48-35q-56-29-105-29-101 0-101 62 0 25 15 47t42 23 36-21q-10-6-15-21t-6-28 10-23 29-10q84 1 151 161 24 57 62 172 72 213 97 240 24 24 83 24zm116 142h-4q-20 0-38-17t-27-35q-26 10-26 36t24 52 46 27 33-10 11-25-19-28z"/><glyph unicode="k" glyph-name="k" horiz-adv-x="411" d="M482 199q-35-59-71-107Q334-8 259-8q-41 0-61 41t-21 91q0 100 30 100 47 0 87 21t40 57q0 28-32 28-69 0-153-150-8-15-33-69T71 28 32 0h-61Q2 58 62 234t90 237q1 2 12 26t16 33 18 34 21 37 22 34 25 35 26 28 28 25q34 20 62 20 55 0 55-50 0-70-84-185T162 289l-18-50q48 62 109 108t112 47q29 0 45-14t17-38q0-55-48-88t-112-44q9-104 29-127 10-11 25-11t41 18 42 39 35 52 32 52 16 22q6 0 6-19t-11-37zm-98 518q-56 0-196-360 128 150 180 253 30 54 30 89 0 18-14 18z"/><glyph unicode="l" glyph-name="l" horiz-adv-x="246" d="M415 610q-36-73-110-165T172 296l-16-46q-12-35-23-85t-10-71q0-30 22-30t52 25 45 43 32 49 32 52 16 22q6 0 6-18t-10-36q-55-93-89-131Q160-6 87-6 31-6 31 70q0 75 67 262 5 16 23 67t31 79 35 76 42 75 46 57q49 58 106 58t57-52q0-40-23-82zm-21 109h-7q-61 0-195-366 137 161 187 264 28 63 28 82t-13 20z"/><glyph unicode="m" glyph-name="m" horiz-adv-x="665" d="M737 201q-37-62-67-103t-70-73-71-31q-59 0-59 68 0 79 63 225 14 37 14 51 0 20-18 20-11 0-38-13t-51-39-40-48-33-66-24-62Q314 40 304 0h-98q52 144 71 194t24 62l9 28q11 32 11 53t-19 21q-16 0-43-14t-54-41-43-62-28-62-22-63-19-61T75 0h-97q11 42 24 75l65 166q40 100 40 146 0 10-2 13h42q34 0 44-6t10-18-12-51q88 80 176 80 53 0 53-44 0-19-11-47 91 91 187 91 52 0 52-44 0-20-7-38t-18-46-18-47-16-46q-19-55-19-81t16-27 42 22 37 38 31 45 32 52 15 22q6 0 6-18t-10-36z"/><glyph unicode="n" glyph-name="n" horiz-adv-x="436" d="M508 201q-37-62-67-103t-70-73-71-31q-59 0-59 65t75 261q4 9 4 19 0 21-26 21t-52-16-47-47-38-62-31-73-23-68-17-59T76 0h-97q0 21 88 241 36 103 36 144 0 10-3 15h42q35 0 45-7t10-19-11-49q84 80 169 80 57 0 57-52 0-17-5-34t-25-68q-44-112-44-150 0-24 18-24 13 0 36 18t39 37 34 49 32 52 15 22q6 0 6-18t-10-36z"/><glyph unicode="o" glyph-name="o" horiz-adv-x="449" d="M517 246q3 6 6 6 6 0 6-15 0-48-38-79t-72-32-58 19q-36-71-85-112T148-8Q98-8 67 22t-32 93 28 129 86 115 129 48q119 0 119-126 0-48-21-101 15-21 43-21 52 0 98 87zm-167 62q-4 53-48 53-69 0-135-134-36-74-36-134t52-63q43 0 79 45t62 101q-34 29-34 73 0 27 14 43t40 16h6z"/><glyph unicode="p" glyph-name="p" horiz-adv-x="394" d="M473 214Q413 104 343 43T177-18 69 31L13-144q-20-59-30-76t-24-23-33-5h-48q26 38 105 262T87 301t38 75q24 24 83 24h30q-29-20-79-120 93 124 164 124 67 0 67-92 0-76-48-156T229 32h8q41 0 83 33t74 73q17 22 48 74t33 53q8 0 8-17t-10-34zM278 319q-3 1-9 1-21 0-46-20-41-32-87-106T90 73t29-47q52 0 113 103t61 161q0 25-15 29z"/><glyph unicode="q" glyph-name="q" horiz-adv-x="463" d="M541 258q5 0 5-18t-5-29-20-35-20-33-21-30-25-32-25-23q-26-25-55-25t-39 23q-9-30-30-104t-34-115-43-62-96-20q36 49 84 182 17 47 48 137t46 133Q195-3 95-3 28-3 28 89q0 70 30 142t88 122 125 51q30 0 57-13t38-43q14 29 35 40t66 12h30q-58-36-142-284v-5q0-40 27-40t81 67q14 18 45 69t33 51zm-187 63l7 16q-11 30-46 30-66 0-128-92t-62-164q0-31 24-31 35 0 85 59t81 111 39 71z"/><glyph unicode="r" glyph-name="r" horiz-adv-x="336" d="M304 402l51-1h10q-15-11-42-65t-41-81-30-74-17-76 20-29q13 1 36 18t39 37 34 50 32 53 16 23q7 0 7-18t-10-36q-43-71-71-109t-67-69-72-32q-57 0-57 84 0 57 22 129t65 139q-35-28-70-28-11 0-23 5-71-140-76-140t-6 16 12 46 27 57 16 30q-36 18-36 58 0 20 12 36t35 16 36-14q-2-6-2-18 0-27 19-42t48-16q8 0 12 1 35 50 71 50z"/><glyph unicode="s" glyph-name="s" horiz-adv-x="378" d="M451 203Q376 78 315 29T157-20q-56 0-94 21T25 65q0 24 14 44t38 20 32-18Q90 92 90 67q0-50 56-50 33 0 57 23t25 50-12 49-29 37-34 32q-41 39-41 89t38 85 106 35q42 0 71-15t29-46-19-55-51-23-33 30q0 7 23 21t23 29-12 22-36 8-44-16-22-42 22-49 48-39 48-44 22-60-14-57-35-40q56 24 119 120 6 8 21 33 35 63 39 63 6 0 6-18t-10-36z"/><glyph unicode="t" glyph-name="t" horiz-adv-x="249" d="M346 573q-49-34-110-174h101l1-1q0-5-11-17t-19-13h-86q-79-196-79-252 0-38 24-38 35 0 82 60 11 13 29 44 46 74 48 74 6 0 6-16-1-38-83-148-27-36-65-67T115-6Q58-6 58 74q0 67 32 154v1q-19-35-32-52t-16-17q-4 0-4 12t13 41 37 73 39 82H60q-3 0-3 4t7 16 12 11h76q72 173 146 173 43 0 48 1z"/><glyph unicode="u" glyph-name="u" horiz-adv-x="449" d="M416 403l48-1q15 0 19 1-28-19-80-132t-53-164q0-30 20-30 13 0 35 17t39 37 34 51 32 52 16 22q6 0 6-19t-11-36Q397-6 314-6q-56 0-56 83 0 26 4 50Q168-6 83-6 58-6 43 15T27 77t29 135 71 156q10 15 21 18t44 4h48q-25-34-54-92-66-137-66-201 0-38 27-38t66 53 81 137 51 96q37 58 71 58z"/><glyph unicode="v" glyph-name="v" horiz-adv-x="404" d="M474 198q-41-73-103-73-52 0-73 56Q211 50 176 26 127-7 80-7 56-7 41 16T25 80t25 122q49 159 113 186 31 13 84 13 4 0 4-4t-6-10q-38-32-82-136t-45-148 33-44q28 0 65 55t62 123q-5 23-5 58t17 71 49 36 31-46q0-54-33-110-9-16-12-22 1-31 15-48t38-17q36 0 67 45 12 18 21 32t11 15q4 0 4-21t-7-32z"/><glyph unicode="w" glyph-name="w" horiz-adv-x="677" d="M408 378l54-1q17 0 20 1-37-22-88-168-29-77-29-117t30-41q35 0 71 40t55 78 30 67q-5 25-5 61t18 70 47 34q32 0 32-45 0-40-10-63t-20-42-14-28q0-29 15-47t36-18q47 0 95 87 3 5 5 5t3-14q0-54-37-83t-74-29q-54 0-71 56l-3 10Q506 83 459 38T346-7q-84 0-84 95 0 17 4 39Q171-6 80-6 55-6 39 16T22 77t28 123q53 160 116 187 30 13 84 13 3 0 3-4 0 3-7-7-38-54-78-143-8-20-25-70t-17-83 25-34q50 0 145 182 40 77 41 78 37 59 71 59z"/><glyph unicode="x" glyph-name="x" horiz-adv-x="448" d="M127 305Q73 198 64 189q-5 0-5 20t4 28q16 29 31 74t28 67 30 21h52q12-67 40-155 25 25 69 76t61 70q9 10 30 10t31 0 13-1q-80-71-196-192 34-110 62-137 14-13 29-13 40 0 105 81 10 12 28 42 48 78 50 78 5 0 5-19t-11-38q-42-72-73-109t-72-69-81-32-66 34-47 104Q97 45 61 0h-74q72 65 180 171-24 66-40 134z"/><glyph unicode="y" glyph-name="y" horiz-adv-x="425" d="M440 390h41q-31-19-63-94-26-63-44-114t-22-63-18-53-24-66q-25-70-58-111t-82-65-99-25-85 19-36 62q0 22 13 39t31 18 30-8 17-18q-18-6-18-42 0-19 13-30t35-12q81 0 136 145l57 152q-47-59-81-88T129 0 83-6 40 15 24 78t24 119 52 122 59 58 84 13q4 0 4-4t-6-10q-41-36-83-129T115 90q0-34 19-34 36 0 92 72t86 144q4 10 11 29t11 26 9 19 12 17 13 12 18 9q29 6 54 6z"/><glyph unicode="z" glyph-name="z" horiz-adv-x="426" d="M498 201Q431 89 380 35T279-19q-26 0-84 30t-70 30-17-3Q67-11 47-11T26 9t12 32 19 19 20 16 38 30q73 59 172 154l35 33-20 3q-71 11-94 11-53 0-81-26-3-3-35-51t-33-49q-4 0-4 21t8 35 24 48 23 45 21 29 30 22 34 6 56-6l12-2q83-15 104-15 34 0 64 34 6 7 16 7t32-7q-78-72-325-312 46-37 103-37h4q45 0 89 24t76 65q13 17 45 69t34 53q5 0 5-19t-12-40z"/><glyph unicode="{" glyph-name="braceleft" horiz-adv-x="457" d="M293-79l-52-2q-100 0-121 8T83-55Q55-38 55 3t28 123 29 118-20 55-40 25-43 5l10 31q81 6 94 15t28 20q36 28 57 123 8 37 15 59t30 50 55 44 48 23q44 18 128 18h26l-9-31q-87 0-131-33-18-14-32-38t-19-43-14-51-16-49q-20-51-78-88T82 340q46-1 85-29t39-69-23-112-23-109q0-72 106-72h20q13 0 19 1l-12-29z"/><glyph unicode="|" glyph-name="bar" horiz-adv-x="457" d="M279 697h69L242-53h-70l107 750z"/><glyph unicode="}" glyph-name="braceright" horiz-adv-x="572" d="M216 710l52 2q100 0 121-8t37-18q28-17 28-58t-28-123-29-118 20-55 40-25 43-5l-10-31q-81-6-94-15t-28-20q-36-29-57-124-8-37-15-59T266 4t-57-44-47-23-48-12-59-7-32 0-14 1l10 31q86 0 129 33 19 14 33 38t19 43 14 51 16 49q19 51 77 88t120 39q-47 1-85 29t-39 68 23 113 23 109q0 72-106 72h-21q-13 0-18-1l12 29z"/><glyph unicode="~" glyph-name="asciitilde" horiz-adv-x="514" d="M609 688q-56-79-111-79-33 0-91 21t-90 22q-56 0-75-29-3-4-7-4-9 0-9 11t36 41 70 30 92-21 85-22 48 11 31 21 14 11q8 0 8-9 0-3-1-4z"/><glyph glyph-name="uni00A0" horiz-adv-x="290"/><glyph unicode="¡" glyph-name="exclamdown" horiz-adv-x="375" d="M374 490q-11-2-32-23t-29-34q-49 16-49 41 0 18 21 35t50 17q41 0 41-25 0-3-2-11zM84-112l-59 4h-5q-3 0-5-1 55 79 135 232t91 187l41 8q-17-38-71-195T136-88q-9-24-52-24z"/><glyph unicode="¢" glyph-name="cent" horiz-adv-x="481" d="M458 476q-14-40-42-40-13 0-22 9t-10 21 12 31 13 33q0 25-31 30L218 145q43 0 97 17 33 11 97 69 20 19 24 19t4-16-15-37q-40-55-104-81T196 89L140-58q-1-3-22-3t-21 7v1l56 146h-1l-1 1q-52 11-77 48T49 246t43 150 113 139 142 63l39 101q2 3 23 3t21-7v-1l-38-99q34-6 53-26t20-46-7-47zM177 155l154 401q-78-27-136-125t-58-192q0-63 40-84z"/><glyph unicode="£" glyph-name="sterling" horiz-adv-x="643" d="M568 170q21-1 43-16t22-47q0-43-44-79T480-9 354 13 245 59t-67 23-40-14-32-32Q74-9 44-9 20-9 20 23t28 58 70 31q33 54 89 211h-92q-1 0-1 5t11 23 20 19h79q82 227 171 290 41 29 82 29t60-20 19-46-7-46-15-19q-2 0-2 2-8 52-38 52-64 0-177-242h118q1 0 1-5t-11-24-19-18H295l-15-34q-56-127-97-177 23-3 120-23t154-21q116 0 116 65 0 19-13 28v1q0 2 3 5t5 3z"/><glyph unicode="¤" glyph-name="currency" horiz-adv-x="833" d="M565 489l146 104h1q3 0 3-18t-5-45-13-32l-90-64q14-31 14-67 0-64-45-119l68-65q3-3 3-14t-4-31-10-35-8-15h-1L513 194q-57-33-122-33t-115 37L121 88h-1q-3 0-3 18t5 45 12 32l97 68q-18 32-18 71 0 64 42 119l-59 57q-3 3-3 17t9 46 15 32h1l100-96q57 35 126 35t121-43zM285 279l33-34 85-34 100 43 47 102-33 92-88 35-99-45-45-102z"/><glyph unicode="¥" glyph-name="yen" horiz-adv-x="655" d="M727 698Q540 568 409 342h88q1 0 1-5t-17-29-27-24h-76q-25-48-45-101h120q1 0 1-5t-17-29-27-24h-96q-19-70-19-94t4-31H170q11 49 37 125H91q-1 0-1 5t17 29 27 24h93q18 54 18 91v10H135q-1 0-1 5t17 29 27 24h57q-21 92-82 241-19 46-49 46t-74-37l-2-1q-6 0-6 7t2 10q33 35 82 61t85 27 49-19q28-41 105-340 21 29 112 159t131 182q16 21 82 21h30q19 0 27-1z"/><glyph unicode="¦" glyph-name="brokenbar" horiz-adv-x="457" d="M401 691l-46-317q0-3-23-3t-22 8l46 317q0 3 23 3t22-8zm-61-432L294-58q0-3-23-3t-22 8l46 317q0 3 23 3t22-8z"/><glyph unicode="§" glyph-name="section" horiz-adv-x="857" d="M766 716l40-30 40-72-28-79-80-37-51 43q0 4 2 16 26 0 46 20t20 46-23 42-58 16q-58 0-96-35t-38-82q0-25 17-54t36-48 53-51 45-43q76-77 76-164T693 52 512-19q-8-87-88-149t-180-62-156 30-56 94q0 35 23 64t65 29 58-30q-35-28-35-66t24-60 65-24q63 0 110 41t48 109-86 158q-1 2-35 37t-56 73-23 88q0 87 68 140t167 53h21q-1 5-1 17 0 87 68 140t160 53zM552 333q-63 66-78 92t-22 47q-9-1-33-1-58 0-96-35t-38-82q0-25 18-55t34-47 54-52 45-42q65-65 75-141 55 7 94 48t40 100q0 64-62 133-28 32-31 35z"/><glyph unicode="¨" glyph-name="dieresis" horiz-adv-x="580" d="M553 609q-20-5-41-27t-33-23q-21 0-21 17t24 52 46 35q11 0 21-15t10-26-6-13zm-187 0q-20-5-41-27t-33-23q-21 0-21 17t24 52 46 35q11 0 21-15t10-26-6-13z"/><glyph unicode="©" glyph-name="copyright" horiz-adv-x="674" d="M790 343q-19-142-141-242T378 1 136 87 41 301q0 102 59 191t156 141 206 52q143 0 237-86t94-215q0-20-3-41zM602 128q114 105 114 252 0 115-75 192t-188 78q-133 0-233-102T119 307q0-115 75-192t192-77 216 90zm-14 116q-95-119-228-119-71 0-108 47t-38 118q0 107 76 200t185 93q48 0 76-26t28-62-18-62-44-26q-50 0-50 43 0 9 17 16 31 12 31 47 0 17-9 28t-29 11q-39 0-80-42t-69-105-28-118 23-89 69-33 94 31 87 80q4 5 8 5 12 0 12-15t-5-22z"/><glyph unicode="ª" glyph-name="ordfeminine" horiz-adv-x="473" d="M445 702l50-1h10q-33-27-81-136t-48-160q0-26 18-26h1q13 0 35 17t38 37 34 51 32 52 16 22q6 0 6-19t-11-35q-36-61-67-103t-70-74-69-31q-54 0-54 83 0 62 21 122Q192 299 95 299q-67 0-67 92 0 70 30 142t88 122 125 51q32 0 60-14t37-47q11 23 34 40t43 17zm-83-66q-10 32-47 32-66 0-128-91t-62-164q0-31 24-31 26 0 61 32t63 77q62 98 89 145z"/><glyph unicode="«" glyph-name="guillemotleft" horiz-adv-x="671" d="M656 521l2 1q2 0 2-4 0-25-91-95T389 300q55-38 112-88t79-88q1-1 1-8t-18-23-25-17-6 1Q427 196 331 265q-21 15-21 23t25 23q177 99 321 210zm-242 0q1 1 2 1t2-3q0-25-91-95T148 300q150-106 190-176 1-2 1-9t-18-23-25-16-6 1Q185 196 89 265q-20 15-20 23t25 23q165 93 320 210z"/><glyph unicode="¬" glyph-name="logicalnot" horiz-adv-x="811" d="M711 327l-19-102Q652 18 641 18q-13 0-16 13l21 292-643-9v45l666 10q11 0 26-13t16-29z"/><glyph unicode="­" glyph-name="uni00AD" horiz-adv-x="490" d="M200 288h279q1 0 1-5t-18-32-29-28H154q-1 0-1 5t19 32 28 28z"/><glyph unicode="®" glyph-name="registered" horiz-adv-x="831" d="M790 343q-19-142-141-242T378 1 136 87 41 301q0 102 59 191t156 141 206 52q143 0 237-86t94-215q0-20-3-41zM602 128q114 105 114 252 0 115-75 192t-188 78q-133 0-233-102T119 307q0-115 75-192t192-77 216 90zm11 376q0-58-45-94t-107-48l-22-4q35-120 142-232-7-2-31-2l-52 2q-39 0-80 98t-42 136q0 10 9 11 68 6 115 38t48 91q0 34-23 54t-71 21q-54-73-117-228t-63-207q0-10 3-15h-87q18 81 90 251 65 162 103 220h105q62 0 93-26t32-66z"/><glyph unicode="¯" glyph-name="overscore" horiz-adv-x="514" d="M315 685h241l1-1q0-6-14-23t-21-17H281q-1 0-1 3t14 20 21 18z"/><glyph unicode="°" glyph-name="degree" horiz-adv-x="833" d="M526 588q-16-48-60-81t-97-34-76 23-24 61q0 57 48 104t121 48q47 0 70-23t24-60q0-18-6-38zm-37 38q0 53-54 53-45 0-78-41t-33-84q0-53 52-53 45 0 79 41t34 84z"/><glyph unicode="±" glyph-name="plusminus" horiz-adv-x="722" d="M108 376l238-8q55 137 77 206 3 12 41 26t48 14 10-1v-1q-97-214-110-244 226 2 288 5 1 0 1-2 0-9-25-36t-38-27l-248 9q-28-57-56-133T297 74q-3-12-41-26t-49-14-10 1v1q51 94 129 282-188 0-234-3t-47-3q0 9 25 36t38 28zM11-39h483q1 0 1-4t-18-29-29-25H-35q-1 0-1 4t18 29 29 25z"/><glyph unicode="²" glyph-name="twosuperior" horiz-adv-x="491" d="M476 596q0-63-36-104t-81-66-92-46Q146 325 90 253q157-55 243-55 75 0 75 61h19q0-61-29-99t-92-39q-38 0-80 23t-77 46-52 23-27-13-10-31q-3-44-32-44-25 0-25 40 0 92 133 190 153 106 188 151 38 50 38 96 0 29-16 46t-55 18-73-37-35-81q0-13 5-28-16-10-34-10t-32 17-14 44q0 47 38 79 66 57 167 57 163 0 163-111z"/><glyph unicode="³" glyph-name="threesuperior" horiz-adv-x="473" d="M379 705l48-27 48-88-39-99-96-59q48-10 75-43t28-78q0-93-80-147t-184-54q-73 0-124 31T4 234q0 36 23 67t60 31q22 0 44-15-36-49-36-88t26-60 77-21 91 43 41 98-29 87-77 33q-11 0-31-6t-30-6-16 7-8 18 12 19 36 9 50-9q53 13 91 58t38 96q0 33-19 53t-62 21-74-35-32-80q0-20 7-37-14-9-32-9t-33 17-14 50 20 59 52 42q63 29 131 29z"/><glyph unicode="´" glyph-name="acute" horiz-adv-x="531" d="M480 610q-40-17-106-50t-69-34-12 5-10 7q9 5 65 46t75 55q4 2 12 2t27-11 20-17q0-2-2-3z"/><glyph unicode="µ" glyph-name="mu" horiz-adv-x="453" d="M417 400l48-1q15 0 19 1-29-19-79-131t-51-162q0-30 20-30 13 0 35 17t39 37 34 51 32 52 16 22q6 0 6-19t-11-35q-36-61-67-103t-70-74-70-31q-56 0-56 83 0 26 4 50Q171-6 80-6q-7 0-10 1-104-231-278-231-37 0-63 15t-27 43 15 51 42 23 36-21q-10-6-15-21t-6-28 10-23 29-10q84 0 151 161 27 66 74 210t86 204q9 14 24 18t48 4h45q-46-65-87-180-28-84-28-117t25-34q28 0 65 52t80 136 50 95q37 58 71 58z"/><glyph unicode="¶" glyph-name="paragraph" horiz-adv-x="558" d="M309 698h362q-35-27-83-108t-94-176-92-225T355 2t28-65h-71q-41 0-41 55t45 179 127 299 117 208h-53q-57-63-146-240-34-70-87-204T205 40 189-67t28-58h-57q-41 0-41 53t30 143 104 267q-11-1-32-1-88 0-133 40T43 479q0 83 73 151t193 68zm122-20h-67q-108 0-164-53t-57-125q0-55 33-94t89-39q129 282 166 311z"/><glyph unicode="·" glyph-name="middot" horiz-adv-x="271" d="M263 323q-5-5-17-21-32-40-37-40-15 0-35 15t-20 29q0 22 30 41t65 19q24 0 24-22 0-14-10-21z"/><glyph unicode="¸" glyph-name="cedilla" horiz-adv-x="674" d="M215-72q-1-4-9-3t-15 1q-35 0-67-46t-32-92 40-46q37 0 73 38 2 2 4 2t3-7q0-24-31-40t-68-17-55 20-18 54q0 65 42 108t106 44h4l20 46q1 4 11 4t11-3l-19-63z"/><glyph unicode="¹" glyph-name="onesuperior" horiz-adv-x="291" d="M194 706h108q-44-103-114-306t-82-266H0q23 54 148 390l40 109L77 533H29l165 173z"/><glyph unicode="º" glyph-name="ordmasculine" horiz-adv-x="436" d="M475 498q-65-104-102-141t-68-38-49 21q-57-52-140-52-50 0-82 30T2 411t28 129 86 115 125 48 95-34 28-89q0-92-70-197 8-16 26-16 32 0 83 67 17 22 45 70t31 48q6 0 6-18t-10-36zm-188-34l7 15q24 56 24 110 0 68-49 68-69 0-135-134-36-74-36-134t52-63q43 0 87 54l-2 13q-2 12-2 29t12 35 24 18 18-11z"/><glyph unicode="»" glyph-name="guillemotright" horiz-adv-x="693" d="M696 333q20-15 20-22t-25-23Q523 194 371 77q-1-1-3-1t-2 4q0 26 90 94t181 124Q489 403 447 475q-1 1-1 8t18 23 24 16 7-1q105-119 201-188zm-242 0q20-14 20-22t-24-23Q283 195 129 77q-1-1-3-1t-2 4q0 26 92 96t179 122Q247 403 205 475q-1 1-1 8t18 23 24 16 7-1q105-119 201-188z"/><glyph unicode="¼" glyph-name="onequarter" horiz-adv-x="993" d="M935 334h14l28-14 14-40q0-42-41-75t-115-33q-15 0-22 1Q772 45 763 0H657q14 31 72 186-19 5-59 16-84 25-116 25t-46-11-14-24q-1-36-24-36-12 0-20 9t-9 25q0 40 37 61l373 321h108q-51-117-123-332 97 8 97 60 0 16-10 23 12 11 26 11zM661 694L105-58q-2-3-27-3t-25 7v1l556 752q3 3 27 3t25-7v-1zm-466 12h108q-44-103-114-306t-82-266H1q23 54 147 390l41 109L78 533H30l165 173zm655-194L555 263q51-3 97-11t97-11l101 271z"/><glyph unicode="½" glyph-name="onehalf" horiz-adv-x="950" d="M928 464q0-63-36-104t-81-66-92-46q-121-55-177-127 157-55 243-55 75 0 75 61h19q0-61-29-99t-92-39q-38 0-80 23t-77 46-52 23-27-13-10-31q-3-44-32-44-25 0-25 40 0 92 133 190 153 106 188 151 38 50 38 96 0 29-16 46t-55 18-73-37-35-81q0-13 5-28-16-10-34-10t-32 17-14 44q0 47 38 79 66 57 167 57 163 0 163-111zM622 694L66-58q-2-3-27-3t-25 7v1l556 752q3 3 27 3t25-7v-1zm-428 48h108q-44-103-114-306t-82-266H0q23 54 148 390l40 109L77 569H29l165 173z"/><glyph unicode="¾" glyph-name="threequarters" horiz-adv-x="1220" d="M1166 334h14l28-14 14-40q0-42-41-75t-115-33q-15 0-22 1-41-128-50-173H888q14 31 72 186-19 5-58 16-85 25-117 25t-46-11-13-24q-2-36-25-36-12 0-20 9t-9 25q0 40 37 61l373 321h108q-51-117-123-332 97 8 97 60 0 16-10 23 12 11 26 11zM923 694L367-58q-2-3-27-3t-25 7v1l556 752q3 3 27 3t25-7v-1zm-544 11l48-27 48-88-39-99-96-59q48-10 75-43t28-78q0-93-80-147t-184-54q-73 0-124 31T4 234q0 36 23 67t60 31q22 0 44-15-36-49-36-88t26-60 77-21 91 43 41 98-29 87-77 33q-11 0-31-6t-30-6-16 7-8 18 12 19 36 9 50-9q53 13 91 58t38 96q0 33-19 53t-62 21-74-35-32-80q0-20 7-37-14-9-32-9t-33 17-14 50 20 59 52 42q63 29 131 29zm702-193L786 263q51-3 97-11t97-11l101 271z"/><glyph unicode="¿" glyph-name="questiondown" horiz-adv-x="508" d="M371 300l-2 15q0 12 12 20t26 9q23 0 23-28 0-54-64-102l-18-12Q204 110 158 38q-16-27-16-49 0-44 24-69t62-25q27 0 74 25 23 12 39 38t17 51-7 41q14 8 32 8t35-18 17-48q0-48-43-78-73-53-177-53Q27-139 27-20q0 70 51 109 42 31 94 53t78 34 56 32q65 40 65 92zm135 194q-11-2-32-23t-29-34q-49 16-49 41 0 18 21 35t50 17q41 0 41-25 0-3-2-11z"/><glyph unicode="À" glyph-name="Agrave" horiz-adv-x="813" d="M408 698h224q-25-25-87-38t-140-20-102-13q-107-25-107-128-31 32-31 69 0 130 243 130zm275 0h72q-46-44-93-240t-48-304q0-76 28-105 12-13 30-13t38 13l6-9q-14-20-50-34T595-9q-52 0-71 37t-22 99q0 51 13 132H286Q137 101 52 0H-48q94 86 292 282 255 254 335 352 20 24 30 33t30 20 44 11zM580 557Q466 450 330 309h192q18 99 58 248zm94 223q-43 22-59 29t-17 9q0 6 20 17t28 11 12-2q18-13 52-38l58-43q23-17 30-20 0-3-10-7t-12-5-31 14l-71 35z"/><glyph unicode="Á" glyph-name="Aacute" horiz-adv-x="813" d="M408 698h224q-25-25-87-38t-140-20-102-13q-107-25-107-128-31 32-31 69 0 130 243 130zm275 0h72q-46-44-93-240t-48-304q0-76 28-105 12-13 30-13t38 13l6-9q-14-20-50-34T595-9q-52 0-71 37t-22 99q0 51 13 132H286Q137 101 52 0H-48q94 86 292 282 255 254 335 352 20 24 30 33t30 20 44 11zM580 557Q466 450 330 309h192q18 99 58 248zm300 253q-40-17-106-50t-69-34-12 5-10 7q9 5 65 46t75 55q4 2 12 2t27-11 20-17q0-2-2-3z"/><glyph unicode="Â" glyph-name="Acircumflex" horiz-adv-x="813" d="M408 698h224q-25-25-87-38t-140-20-102-13q-107-25-107-128-31 32-31 69 0 130 243 130zm275 0h72q-46-44-93-240t-48-304q0-76 28-105 12-13 30-13t38 13l6-9q-14-20-50-34T595-9q-52 0-71 37t-22 99q0 51 13 132H286Q137 101 52 0H-48q94 86 292 282 255 254 335 352 20 24 30 33t30 20 44 11zM580 557Q466 450 330 309h192q18 99 58 248zm296 209v-1q0-3-14-11t-23-8q-14 0-38 36t-37 63q-33-32-73-63t-57-32-16 3v1q96 78 146 130 8 9 16 9t24-22 38-56 34-49z"/><glyph unicode="Ã" glyph-name="Atilde" horiz-adv-x="813" d="M408 698h224q-25-25-87-38t-140-20-102-13q-107-25-107-128-31 32-31 69 0 130 243 130zm275 0h72q-46-44-93-240t-48-304q0-76 28-105 12-13 30-13t38 13l6-9q-14-20-50-34T595-9q-52 0-71 37t-22 99q0 51 13 132H286Q137 101 52 0H-48q94 86 292 282 255 254 335 352 20 24 30 33t30 20 44 11zM580 557Q466 450 330 309h192q18 99 58 248zm360 326q-42-72-80-72-23 0-65 18t-66 18-43-15-19-15q-11 0-11 9t26 39 50 29 71-18 66-19 32 10 19 21 13 10q9 0 9-8 0-3-2-7z"/><glyph unicode="Ä" glyph-name="Adieresis" horiz-adv-x="813" d="M408 698h224q-25-25-87-38t-140-20-102-13q-107-25-107-128-31 32-31 69 0 130 243 130zm275 0h72q-46-44-93-240t-48-304q0-76 28-105 12-13 30-13t38 13l6-9q-14-20-50-34T595-9q-52 0-71 37t-22 99q0 51 13 132H286Q137 101 52 0H-48q94 86 292 282 255 254 335 352 20 24 30 33t30 20 44 11zM580 557Q466 450 330 309h192q18 99 58 248zm325 252q-20-5-41-27t-33-23q-21 0-21 17t24 52 46 35q11 0 21-15t10-26-6-13zm-187 0q-20-5-41-27t-33-23q-21 0-21 17t24 52 46 35q11 0 21-15t10-26-6-13z"/><glyph unicode="Å" glyph-name="Aring" horiz-adv-x="813" d="M408 698h224q-25-25-87-38t-140-20-102-13q-107-25-107-128-31 32-31 69 0 130 243 130zm275 0h72q-46-44-93-240t-48-304q0-76 28-105 12-13 30-13t38 13l6-9q-14-20-50-34T595-9q-52 0-71 37t-22 99q0 51 13 132H286Q137 101 52 0H-48q94 86 292 282 255 254 335 352 20 24 30 33t30 20 44 11zM580 557Q466 450 330 309h192q18 99 58 248z"/><glyph unicode="Æ" glyph-name="AE" horiz-adv-x="998" d="M884 698l109 5q31 0 34-12t4-19q0-35-24-88t-35-54-11 8l8 60q0 31-25 49t-60 18-52-5-27-21q-73-109-133-248h261l1-1q0-7-14-27t-23-21H650q-27-66-53-148T571 86t16-39 54-13q292 0 346 114 1 3 7 3t6-6-2-16q-28-87-83-110-29-12-54-15t-66-4H493q-31 0-31 48 0 67 56 211H286Q137 101 52 0H-48q94 86 292 282 255 254 335 352 20 24 30 33t30 20 44 11h201zm-180-30q-37-23-95-75t-100-95Q386 372 330 309h207l35 82q91 219 133 269v3q0 2-1 5zm-296 30h224q-25-25-87-38t-140-20-102-13q-107-25-107-128-31 32-31 69 0 130 243 130z"/><glyph unicode="Ç" glyph-name="Ccedilla" horiz-adv-x="651" d="M666 556q-16-41-59-69t-91-28q-22 0-36 9t-14 25 12 32q11-4 25-4 39 0 72 27t33 65q0 58-77 58-102 0-199-70T176 420t-60-227q0-178 162-178 101 0 214 78t150 169q19-13 19-35 0-45-64-111T436 10 238-30Q3-30 3 189q0 83 37 173t100 168 157 128 187 50 141-31 49-81q0-18-8-40zM213-90q-1-4-9-3t-15 1q-35 0-67-46t-32-92 40-46q37 0 73 38 2 2 4 2t3-7q0-24-31-40t-68-17-55 20-18 54q0 65 42 108t106 44h4l20 46q1 4 11 4t11-3l-19-63z"/><glyph unicode="È" glyph-name="Egrave" horiz-adv-x="587" d="M471 698l109 5q31 0 34-12t4-19q0-35-24-88t-35-54-11 8l8 60q0 31-25 49t-60 18-52-5-27-21q-73-109-133-248h261l1-1q0-7-14-27t-23-21H237q-27-66-53-148T158 86t16-39 54-13q292 0 346 114 2 3 7 3t6-6-2-16q-28-87-83-110-29-12-54-15t-66-4H80Q49 0 49 47q0 81 89 295H83q-8 0-8 5 0 10 19 27t31 17h34q92 221 133 269-94-12-171-40T19 551q-1-3-5-3t-4 5 1 8q38 104 139 127 46 10 123 10h198zm-82 82q-43 22-59 29t-17 9q0 6 20 17t28 11 12-2q18-13 53-38l57-43q23-17 30-20 0-3-10-7t-12-5-31 14l-71 35z"/><glyph unicode="É" glyph-name="Eacute" horiz-adv-x="587" d="M471 698l109 5q31 0 34-12t4-19q0-35-24-88t-35-54-11 8l8 60q0 31-25 49t-60 18-52-5-27-21q-73-109-133-248h261l1-1q0-7-14-27t-23-21H237q-27-66-53-148T158 86t16-39 54-13q292 0 346 114 2 3 7 3t6-6-2-16q-28-87-83-110-29-12-54-15t-66-4H80Q49 0 49 47q0 81 89 295H83q-8 0-8 5 0 10 19 27t31 17h34q92 221 133 269-94-12-171-40T19 551q-1-3-5-3t-4 5 1 8q38 104 139 127 46 10 123 10h198zm91 112q-40-17-106-50t-69-34-12 5-10 7q9 5 65 46t75 55q4 2 12 2t27-11 20-17q0-2-2-3z"/><glyph unicode="Ê" glyph-name="Ecircumflex" horiz-adv-x="587" d="M471 698l109 5q31 0 34-12t4-19q0-35-24-88t-35-54-11 8l8 60q0 31-25 49t-60 18-52-5-27-21q-73-109-133-248h261l1-1q0-7-14-27t-23-21H237q-27-66-53-148T158 86t16-39 54-13q292 0 346 114 2 3 7 3t6-6-2-16q-28-87-83-110-29-12-54-15t-66-4H80Q49 0 49 47q0 81 89 295H83q-8 0-8 5 0 10 19 27t31 17h34q92 221 133 269-94-12-171-40T19 551q-1-3-5-3t-4 5 1 8q38 104 139 127 46 10 123 10h198zm112 60v-1q0-3-14-11t-23-8q-14 0-38 36t-37 63q-33-32-73-63t-57-32-16 3v1q96 78 146 130 8 9 16 9t24-22 38-56 34-49z"/><glyph unicode="Ë" glyph-name="Edieresis" horiz-adv-x="587" d="M471 698l109 5q31 0 34-12t4-19q0-35-24-88t-35-54-11 8l8 60q0 31-25 49t-60 18-52-5-27-21q-73-109-133-248h261l1-1q0-7-14-27t-23-21H237q-27-66-53-148T158 86t16-39 54-13q292 0 346 114 2 3 7 3t6-6-2-16q-28-87-83-110-29-12-54-15t-66-4H80Q49 0 49 47q0 81 89 295H83q-8 0-8 5 0 10 19 27t31 17h34q92 221 133 269-94-12-171-40T19 551q-1-3-5-3t-4 5 1 8q38 104 139 127 46 10 123 10h198zm129 111q-20-5-41-27t-33-23q-21 0-21 17t24 52 46 35q11 0 21-15t10-26-6-13zm-187 0q-20-5-41-27t-33-23q-21 0-21 17t24 52 46 35q11 0 21-15t10-26-6-13z"/><glyph unicode="Ì" glyph-name="Igrave" horiz-adv-x="408" d="M217 698h226q-69-53-190-328-31-70-70-183T143 21q0-14 4-21H18q28 121 118 336 120 286 155 325-85-2-172-34T17 549q-1-3-4-3-9 0-9 13 0 2 2 10 19 55 55 85t70 37 86 7zm94 82q-43 22-59 29t-17 9q0 6 20 17t28 11 12-2q18-13 53-38l57-43q23-17 30-20 0-3-10-7t-12-5-31 14l-71 35z"/><glyph unicode="Í" glyph-name="Iacute" horiz-adv-x="408" d="M217 698h226q-69-53-190-328-31-70-70-183T143 21q0-14 4-21H18q28 121 118 336 120 286 155 325-85-2-172-34T17 549q-1-3-4-3-9 0-9 13 0 2 2 10 19 55 55 85t70 37 86 7zm308 112q-40-17-106-50t-69-34-12 5-10 7q9 5 65 46t75 55q4 2 12 2t27-11 20-17q0-2-2-3z"/><glyph unicode="Î" glyph-name="Icircumflex" horiz-adv-x="408" d="M217 698h226q-69-53-190-328-31-70-70-183T143 21q0-14 4-21H18q28 121 118 336 120 286 155 325-85-2-172-34T17 549q-1-3-4-3-9 0-9 13 0 2 2 10 19 55 55 85t70 37 86 7zm294 56v-1q0-3-14-11t-23-8q-14 0-38 36t-37 63q-33-32-73-63t-57-32-16 3v1q96 78 146 130 8 9 16 9t24-22 38-56 34-49z"/><glyph unicode="Ï" glyph-name="Idieresis" horiz-adv-x="408" d="M217 698h226q-69-53-190-328-31-70-70-183T143 21q0-14 4-21H18q28 121 118 336 120 286 155 325-85-2-172-34T17 549q-1-3-4-3-9 0-9 13 0 2 2 10 19 55 55 85t70 37 86 7zm294 111q-20-5-41-27t-33-23q-21 0-21 17t24 52 46 35q11 0 21-15t10-26-6-13zm-187 0q-20-5-41-27t-33-23q-21 0-21 17t24 52 46 35q11 0 21-15t10-26-6-13z"/><glyph unicode="Ð" glyph-name="Eth" horiz-adv-x="731" d="M743 358q-19-118-89-205T484 23 267-20Q50-20 50 91q0 45 11 79t16 46q15 45 30 74H8q-1 0-1 5t14 28 23 22h85q58 138 101 223t47 90q-79-6-161-35T9 551q-1-3-5-3t-4 5 1 8q38 104 139 127 46 10 123 10h205q142 0 211-77t69-196q0-29-5-67zm-105-8q11 46 11 88 0 97-57 161-32 35-87 51t-104 17q-73-97-165-322h117q1 0 1-5t-14-28-23-22H215q-2-6-9-24t-11-26-9-25-9-26-7-25-7-28q-5-28-5-58t20-43 71-12q139 0 248 93t141 234z"/><glyph unicode="Ñ" glyph-name="Ntilde" horiz-adv-x="703" d="M858 697q-40-26-112-168T617 233 560 18q0-13 2-18h-63q-3 58-20 101t-27 65-31 72-39 90q-52 121-59 206-66-147-130-311T129 9q0-7 1-9H38q57 146 163 385t129 284q-91 0-177-36T51 549q-1-3-4-3-8 0-8 13 0 2 8 27t30 52 53 40q49 20 121 20h169q-14-23-14-56 0-74 57-208 52-125 61-159t12-46 4-26 2-19q13 32 223 514 2 5 18 5t44-3 31-3zM756 883q-42-72-80-72-23 0-65 18t-66 18-43-15-19-15q-11 0-11 9t26 39 50 29 71-18 66-19 32 10 19 21 13 10q9 0 9-8 0-3-2-7z"/><glyph unicode="Ò" glyph-name="Ograve" horiz-adv-x="763" d="M718 303Q652 153 530 61T251-32Q3-32 3 187q0 99 41 194t110 167 161 116 190 44q127 0 190-62t64-156-41-187zm-42 196q0 163-146 163-106 0-202-73T176 406t-56-220q0-79 35-128T266 9t154 46 132 117 89 159 35 168zM504 798q-43 22-59 29t-17 9q0 6 20 17t28 11 12-2q18-13 52-38l58-43q23-17 30-20 0-3-10-7t-12-5-31 14l-71 35z"/><glyph unicode="Ó" glyph-name="Oacute" horiz-adv-x="763" d="M718 303Q652 153 530 61T251-32Q3-32 3 187q0 99 41 194t110 167 161 116 190 44q127 0 190-62t64-156-41-187zm-42 196q0 163-146 163-106 0-202-73T176 406t-56-220q0-79 35-128T266 9t154 46 132 117 89 159 35 168zm5 336q-40-17-106-50t-69-34-12 5-10 7q9 5 65 46t75 55q4 2 12 2t27-11 20-17q0-2-2-3z"/><glyph unicode="Ô" glyph-name="Ocircumflex" horiz-adv-x="763" d="M718 303Q652 153 530 61T251-32Q3-32 3 187q0 99 41 194t110 167 161 116 190 44q127 0 190-62t64-156-41-187zm-42 196q0 163-146 163-106 0-202-73T176 406t-56-220q0-79 35-128T266 9t154 46 132 117 89 159 35 168zm11 276v-1q0-3-14-11t-23-8q-14 0-38 36t-37 63q-33-32-73-63t-57-32-16 3v1q96 78 146 130 8 9 16 9t24-22 38-56 34-49z"/><glyph unicode="Õ" glyph-name="Otilde" horiz-adv-x="763" d="M718 303Q652 153 530 61T251-32Q3-32 3 187q0 99 41 194t110 167 161 116 190 44q127 0 190-62t64-156-41-187zm-42 196q0 163-146 163-106 0-202-73T176 406t-56-220q0-79 35-128T266 9t154 46 132 117 89 159 35 168zm46 384q-42-72-80-72-23 0-65 18t-66 18-43-15-19-15q-11 0-11 9t26 39 50 29 71-18 66-19 32 10 19 21 13 10q9 0 9-8 0-3-2-7z"/><glyph unicode="Ö" glyph-name="Odieresis" horiz-adv-x="763" d="M718 303Q652 153 530 61T251-32Q3-32 3 187q0 99 41 194t110 167 161 116 190 44q127 0 190-62t64-156-41-187zm-42 196q0 163-146 163-106 0-202-73T176 406t-56-220q0-79 35-128T266 9t154 46 132 117 89 159 35 168zm27 347q-20-5-41-27t-33-23q-21 0-21 17t24 52 46 35q11 0 21-15t10-26-6-13zm-187 0q-20-5-41-27t-33-23q-21 0-21 17t24 52 46 35q11 0 21-15t10-26-6-13z"/><glyph unicode="×" glyph-name="multiply" horiz-adv-x="740" d="M414 342l237 169h1q2 0 2-14 0-55-15-66L456 301l139-133q3-3 3-15t-7-38-13-26L399 260 158 89h-1q-3 0-3 15t4 38 11 26l187 133-135 130q-3 3-3 14t8 39 12 27h1l175-169z"/><glyph unicode="Ø" glyph-name="Oslash" horiz-adv-x="763" d="M718 303Q652 153 530 61T251-32q-44 0-84 8l-24-34q-2-3-27-3t-25 7v1l30 42Q3 34 3 186q0 130 67 249t181 195 241 78q77 0 131-19l15 20q3 3 27 3t25-7v-1l-25-35q94-59 94-189 0-82-41-177zm-110-59l34 87 34 171-42 124L201 22q29-13 65-13 78 0 155 46t132 118zM164 49l432 602q-28 11-60 11-78 0-154-45T249 503t-91-156-35-170 41-128z"/><glyph unicode="Ù" glyph-name="Ugrave" horiz-adv-x="747" d="M278 630q18 29 19 31-85-2-172-34T23 549q-1-3-4-3-9 0-9 13 0 2 8 27t32 52 52 40q49 20 121 20h227q-46-35-113-162T230 312q-55-127-55-191t51-65q43 0 111 61t134 151q130 177 183 275t82 127 64 28h62q-47-36-137-216Q590 210 590 91q0-55 35-55 17 0 40 13h1q3 0 3-6 0-19-50-35T538-8q-64 0-64 74 0 37 26 118t66 169Q417 131 344 66 263-7 194-7 79-7 79 104q0 82 60 233t139 293zm290 166q-43 21-59 28t-17 9q0 6 20 17t28 11 12-2q18-13 52-39l58-42q23-17 30-20 0-3-10-7t-12-5-31 14l-71 36z"/><glyph unicode="Ú" glyph-name="Uacute" horiz-adv-x="747" d="M278 630q18 29 19 31-85-2-172-34T23 549q-1-3-4-3-9 0-9 13 0 2 8 27t32 52 52 40q49 20 121 20h227q-46-35-113-162T230 312q-55-127-55-191t51-65q43 0 111 61t134 151q130 177 183 275t82 127 64 28h62q-47-36-137-216Q590 210 590 91q0-55 35-55 17 0 40 13h1q3 0 3-6 0-19-50-35T538-8q-64 0-64 74 0 37 26 118t66 169Q417 131 344 66 263-7 194-7 79-7 79 104q0 82 60 233t139 293zm457 197q-40-17-106-50t-69-34-12 5-10 7q9 5 65 46t75 55q4 2 12 2t27-11 20-17q0-2-2-3z"/><glyph unicode="Û" glyph-name="Ucircumflex" horiz-adv-x="747" d="M278 630q18 29 19 31-85-2-172-34T23 549q-1-3-4-3-9 0-9 13 0 2 8 27t32 52 52 40q49 20 121 20h227q-46-35-113-162T230 312q-55-127-55-191t51-65q43 0 111 61t134 151q130 177 183 275t82 127 64 28h62q-47-36-137-216Q590 210 590 91q0-55 35-55 17 0 40 13h1q3 0 3-6 0-19-50-35T538-8q-64 0-64 74 0 37 26 118t66 169Q417 131 344 66 263-7 194-7 79-7 79 104q0 82 60 233t139 293zm468 124v-1q0-3-14-11t-23-8q-14 0-38 36t-37 63q-33-32-73-63t-57-32-16 3v1q96 78 146 130 8 9 16 9t24-22 38-56 34-49z"/><glyph unicode="Ü" glyph-name="Udieresis" horiz-adv-x="747" d="M278 630q18 29 19 31-85-2-172-34T23 549q-1-3-4-3-9 0-9 13 0 2 8 27t32 52 52 40q49 20 121 20h227q-46-35-113-162T230 312q-55-127-55-191t51-65q43 0 111 61t134 151q130 177 183 275t82 127 64 28h62q-47-36-137-216Q590 210 590 91q0-55 35-55 17 0 40 13h1q3 0 3-6 0-19-50-35T538-8q-64 0-64 74 0 37 26 118t66 169Q417 131 344 66 263-7 194-7 79-7 79 104q0 82 60 233t139 293zm463 174q-20-5-41-27t-33-23q-21 0-21 17t24 52 46 35q11 0 21-15t10-26-6-13zm-187 0q-20-5-41-27t-33-23q-21 0-21 17t24 52 46 35q11 0 21-15t10-26-6-13z"/><glyph unicode="Ý" glyph-name="Yacute" horiz-adv-x="684" d="M756 698q-94-65-186-169-114-129-182-278-38-85-56-171-8-37-8-55t4-25H199q4 17 39 124t36 154-23 128-61 146-75 67q-45 0-104-78-1-1-2-1-5 0-5 8t1 9q35 71 74 104t99 34 87-31 54-124 55-203q21 29 112 159t131 182q16 21 82 21h30q19 0 27-1zM591 810q-40-17-106-50t-69-34-12 5-10 7q9 5 65 46t75 55q4 2 12 2t27-11 20-17q0-2-2-3z"/><glyph unicode="Þ" glyph-name="Thorn" horiz-adv-x="499" d="M422 724l43-3q14 0 29 2-40-26-130-174h47q92 0 139-40t47-101q0-108-109-181t-275-74q-23 0-46 3Q84-54 84-128q0-11 4-21H-41Q-1 16 128 306q5 11 22 51 30 74 58 116l20 39q-84-2-169-35t-100-77q-1-3-4-3-9 0-9 13 0 2 8 27t32 52 52 39q49 21 121 21h89q42 78 78 128 35 47 96 47zM258 172l71 25 117 76 46 123q0 115-137 123-71-91-161-298l-21-49h12q73 0 144 25z"/><glyph unicode="ß" glyph-name="germandbls" horiz-adv-x="544" d="M617 202Q551 89 486 36T318-17q-53 0-89 21t-37 60q0 24 14 44t38 21 32-18q-19-19-19-44 0-50 56-50 33 0 57 23t25 47-10 46-43 52-54 62-23 69 25 67 61 46 72 37 62 49 25 70-22 59-55 19q-121 0-250-352-3-7-5-14t-19-52-24-63-22-58-26-63T63 4Q41-47 3-113t-87-104-116-38-98 25-30 56 16 52 36 20q39 0 39-28 0-6-13-26t-14-35q0-32 36-32 16 0 43 13t59 49 55 76 49 99 41 102 37 108 37 106 24 63 30 73 38 74 45 62 57 54q70 47 150 47 52 0 97-29t46-82q0-37-23-65t-58-46-68-35-57-44-24-55 14-49 36-36 42-32q50-40 50-96 0-28-14-53t-35-40q34 14 68 51t55 74 37 65 20 29 5-20-11-38z"/><glyph unicode="à" glyph-name="agrave" horiz-adv-x="473" d="M445 400l50-1h10q-33-27-81-136t-48-160q0-26 18-26 58 0 148 171 4 7 7 7 6 0 6-18t-10-36Q422-6 339-6q-54 0-54 83 0 62 21 122Q192-3 95-3 28-3 28 89q0 70 30 142t88 122 125 51q32 0 60-14t37-47q11 23 34 40t43 17zm-83-66q-10 32-47 32-66 0-128-91t-62-164q0-31 24-31 26 0 61 32t63 77q62 98 89 145zm-38 218q-43 22-59 29t-17 9q0 6 20 17t28 11 12-2q18-13 52-38l58-43q23-17 30-20 0-3-10-7t-12-5-31 14l-71 35z"/><glyph unicode="á" glyph-name="aacute" horiz-adv-x="473" d="M445 400l50-1h10q-33-27-81-136t-48-160q0-26 18-26 58 0 148 171 4 7 7 7 6 0 6-18t-10-36Q422-6 339-6q-54 0-54 83 0 62 21 122Q192-3 95-3 28-3 28 89q0 70 30 142t88 122 125 51q32 0 60-14t37-47q11 23 34 40t43 17zm-83-66q-10 32-47 32-66 0-128-91t-62-164q0-31 24-31 26 0 61 32t63 77q62 98 89 145zm107 254q-40-17-106-50t-69-34-12 5-10 7q9 5 65 46t75 55q4 2 12 2t27-11 20-17q0-2-2-3z"/><glyph unicode="â" glyph-name="acircumflex" horiz-adv-x="473" d="M445 400l50-1h10q-33-27-81-136t-48-160q0-26 18-26 58 0 148 171 4 7 7 7 6 0 6-18t-10-36Q422-6 339-6q-54 0-54 83 0 62 21 122Q192-3 95-3 28-3 28 89q0 70 30 142t88 122 125 51q32 0 60-14t37-47q11 23 34 40t43 17zm-83-66q-10 32-47 32-66 0-128-91t-62-164q0-31 24-31 26 0 61 32t63 77q62 98 89 145zm114 177v-1q0-3-14-11t-23-8q-14 0-38 36t-37 63q-33-32-73-63t-57-32-16 3v1q96 78 146 130 8 9 16 9t24-22 38-56 34-49z"/><glyph unicode="ã" glyph-name="atilde" horiz-adv-x="473" d="M445 400l50-1h10q-33-27-81-136t-48-160q0-26 18-26 58 0 148 171 4 7 7 7 6 0 6-18t-10-36Q422-6 339-6q-54 0-54 83 0 62 21 122Q192-3 95-3 28-3 28 89q0 70 30 142t88 122 125 51q32 0 60-14t37-47q11 23 34 40t43 17zm-83-66q-10 32-47 32-66 0-128-91t-62-164q0-31 24-31 26 0 61 32t63 77q62 98 89 145zm151 259q-42-72-80-72-23 0-65 18t-66 18-43-15-19-15q-11 0-11 9t26 39 50 29 71-18 66-19 32 10 19 21 13 10q9 0 9-8 0-3-2-7z"/><glyph unicode="ä" glyph-name="adieresis" horiz-adv-x="473" d="M445 400l50-1h10q-33-27-81-136t-48-160q0-26 18-26 58 0 148 171 4 7 7 7 6 0 6-18t-10-36Q422-6 339-6q-54 0-54 83 0 62 21 122Q192-3 95-3 28-3 28 89q0 70 30 142t88 122 125 51q32 0 60-14t37-47q11 23 34 40t43 17zm-83-66q-10 32-47 32-66 0-128-91t-62-164q0-31 24-31 26 0 61 32t63 77q62 98 89 145zm148 224q-20-5-41-27t-33-23q-21 0-21 17t24 52 46 35q11 0 21-15t10-26-6-13zm-187 0q-20-5-41-27t-33-23q-21 0-21 17t24 52 46 35q11 0 21-15t10-26-6-13z"/><glyph unicode="å" glyph-name="aring" horiz-adv-x="473" d="M445 400l50-1h10q-33-27-81-136t-48-160q0-26 18-26 58 0 148 171 4 7 7 7 6 0 6-18t-10-36Q422-6 339-6q-54 0-54 83 0 62 21 122Q192-3 95-3 28-3 28 89q0 70 30 142t88 122 125 51q32 0 60-14t37-47q11 23 34 40t43 17zm-83-66q-10 32-47 32-66 0-128-91t-62-164q0-31 24-31 26 0 61 32t63 77q62 98 89 145zm126 239q-12-37-46-63t-75-26-60 18-18 48q0 44 36 80t94 37q36 0 55-18t19-47q0-12-5-29zm-56 70l-10 1q-32 0-56-30t-24-63q0-39 38-39 33 0 57 30t25 64-30 37z"/><glyph unicode="æ" glyph-name="ae" horiz-adv-x="618" d="M445 400l50-1h10q-7-6-20-26 48 25 85 25t55-17 18-39q0-74-54-112t-108-39-78 13l-10-28q-8-21-9-60t17-62 57-23 83 32 76 73 72 117q4 7 7 7 6 0 6-19t-16-47-31-51-42-56-51-51q-63-46-126-46T334 22t-40 96q0 34 16 74-65-97-115-146T95-3Q28-3 28 89q0 70 30 142t88 122 125 51q32 0 60-14t37-47q10 21 32 39t45 18zm-83-66q-10 32-47 32-66 0-128-91t-62-164q0-31 24-31 26 0 61 32t63 77q62 98 89 145zm228 5q0 29-28 29-39 0-87-48t-48-78q0-20 38-20t79 37 46 80z"/><glyph unicode="ç" glyph-name="ccedilla" horiz-adv-x="358" d="M434 256q6 0 6-19t-16-47-26-42-33-47-40-46-43-33q-44-32-114-32T66 25t-32 93q0 105 74 192t176 88q45 0 72-23t27-56-18-57-41-24q-45 0-45 37 0 12 25 23 10 4 18 15t8 29q0 26-28 26-60 0-119-87t-59-168 71-82q99 0 193 153 19 30 31 51t15 21zM165-72q-1-4-9-3t-15 1q-35 0-67-46t-32-92 40-46q37 0 73 38 2 2 4 2t3-7q0-24-31-40t-68-17-55 20-18 54q0 65 42 108t106 44h4l20 46q1 4 11 4t11-3l-19-63z"/><glyph unicode="è" glyph-name="egrave" horiz-adv-x="358" d="M436 260q6 0 6-19t-16-47-31-51-42-56-51-51q-63-46-126-46T73 22 34 122q0 102 75 189t175 87q45 0 72-23t27-57q0-56-53-90t-125-34q-42 0-62 11-19-51-19-90 0-84 71-84 42 0 86 32t76 73 72 117q4 7 7 7zm-106 79q0 29-28 29-39 0-87-48t-48-78q0-20 38-20t79 37 46 80zm-72 201q-43 22-59 29t-17 9q0 6 20 17t28 11 12-2q18-13 52-38l58-43q23-17 30-20 0-3-10-7t-12-5-31 14l-71 35z"/><glyph unicode="é" glyph-name="eacute" horiz-adv-x="358" d="M436 260q6 0 6-19t-16-47-31-51-42-56-51-51q-63-46-126-46T73 22 34 122q0 102 75 189t175 87q45 0 72-23t27-57q0-56-53-90t-125-34q-42 0-62 11-19-51-19-90 0-84 71-84 42 0 86 32t76 73 72 117q4 7 7 7zm-106 79q0 29-28 29-39 0-87-48t-48-78q0-20 38-20t79 37 46 80zm125 232q-40-17-106-50t-69-34-12 5-10 7q9 5 65 46t75 55q4 2 12 2t27-11 20-17q0-2-2-3z"/><glyph unicode="ê" glyph-name="ecircumflex" horiz-adv-x="358" d="M436 260q6 0 6-19t-16-47-31-51-42-56-51-51q-63-46-126-46T73 22 34 122q0 102 75 189t175 87q45 0 72-23t27-57q0-56-53-90t-125-34q-42 0-62 11-19-51-19-90 0-84 71-84 42 0 86 32t76 73 72 117q4 7 7 7zm-106 79q0 29-28 29-39 0-87-48t-48-78q0-20 38-20t79 37 46 80zm120 176v-1q0-3-14-11t-23-8q-14 0-38 36t-37 63q-33-32-73-63t-57-32-16 3v1q96 78 146 130 8 9 16 9t24-22 38-56 34-49z"/><glyph unicode="ë" glyph-name="edieresis" horiz-adv-x="358" d="M436 260q6 0 6-19t-16-47-31-51-42-56-51-51q-63-46-126-46T73 22 34 122q0 102 75 189t175 87q45 0 72-23t27-57q0-56-53-90t-125-34q-42 0-62 11-19-51-19-90 0-84 71-84 42 0 86 32t76 73 72 117q4 7 7 7zm-106 79q0 29-28 29-39 0-87-48t-48-78q0-20 38-20t79 37 46 80zm152 218q-20-5-41-27t-33-23q-21 0-21 17t24 52 46 35q11 0 21-15t10-26-6-13zm-187 0q-20-5-41-27t-33-23q-21 0-21 17t24 52 46 35q11 0 21-15t10-26-6-13z"/><glyph unicode="ì" glyph-name="igrave" horiz-adv-x="217" d="M186 400l50-1h10q-16-12-42-65t-40-80-29-73-17-75 19-29q13 0 36 17t39 37 33 50 32 52 16 22q6 0 6-18t-10-36q-37-62-67-103t-70-73T81-6Q25-6 25 72q0 121 83 268 35 60 78 60zm-7 150q-43 21-59 28t-17 9q0 6 20 17t28 11 12-2q18-13 53-39l57-42q23-17 30-20 0-3-10-7t-12-5-31 14l-71 36z"/><glyph unicode="í" glyph-name="iacute" horiz-adv-x="217" d="M186 400l50-1h10q-16-12-42-65t-40-80-29-73-17-75 19-29q13 0 36 17t39 37 33 50 32 52 16 22q6 0 6-18t-10-36q-37-62-67-103t-70-73T81-6Q25-6 25 72q0 121 83 268 35 60 78 60zm179 187q-40-17-106-50t-69-34-12 5-10 7q9 5 65 46t75 55q4 2 12 2t27-11 20-17q0-2-2-3z"/><glyph unicode="î" glyph-name="icircumflex" horiz-adv-x="217" d="M186 400l50-1h10q-16-12-42-65t-40-80-29-73-17-75 19-29q13 0 36 17t39 37 33 50 32 52 16 22q6 0 6-18t-10-36q-37-62-67-103t-70-73T81-6Q25-6 25 72q0 121 83 268 35 60 78 60zm174 109v-1q0-3-14-11t-23-8q-14 0-38 36t-37 63q-33-32-73-63t-57-32-16 3v1q96 78 146 130 8 9 16 9t24-22 38-56 34-49z"/><glyph unicode="ï" glyph-name="idieresis" horiz-adv-x="217" d="M186 400l50-1h10q-16-12-42-65t-40-80-29-73-17-75 19-29q13 0 36 17t39 37 33 50 32 52 16 22q6 0 6-18t-10-36q-37-62-67-103t-70-73T81-6Q25-6 25 72q0 121 83 268 35 60 78 60zm180 159q-20-5-41-27t-33-23q-21 0-21 17t24 52 46 35q11 0 21-15t10-26-6-13zm-187 0q-20-5-41-27t-33-23q-21 0-21 17t24 52 46 35q11 0 21-15t10-26-6-13z"/><glyph unicode="ð" glyph-name="eth" horiz-adv-x="482" d="M384 552l32-82 33-161-30-151-95-125-142-53L67 31 29 159l30 145 89 116 130 48q14 0 14-5t-16-12q-43-14-78-62t-54-107-19-115q0-130 101-130 66 0 106 64t41 143-32 166-85 155q-86-54-135-87h-1q-2 0-2 11 0 44 13 52l94 60q-70 73-141 73-41 0-41-35 0-17 15-36t15-29-10-18-30-8-36 20-17 53 32 58 101 26q98 0 177-62l88 58q3 0 3-12 0-42-12-51l-43-27q58-59 90-141z"/><glyph unicode="ñ" glyph-name="ntilde" horiz-adv-x="436" d="M508 201q-37-62-67-103t-70-73-71-31q-59 0-59 65t75 261q4 9 4 19 0 21-26 21t-52-16-47-47-38-62-31-73-23-68-17-59T76 0h-97q0 21 88 241 36 103 36 144 0 10-3 15h42q35 0 45-7t10-19-11-49q84 80 169 80 57 0 57-52 0-17-5-34t-25-68q-44-112-44-150 0-24 18-24 13 0 36 18t39 37 34 49 32 52 15 22q6 0 6-18t-10-36zm-56 380q-42-72-80-72-23 0-65 18t-66 18-43-15-19-15q-11 0-11 9t26 39 50 29 71-18 66-19 32 10 19 21 13 10q9 0 9-8 0-3-2-7z"/><glyph unicode="ò" glyph-name="ograve" horiz-adv-x="449" d="M517 246q3 6 6 6 6 0 6-15 0-48-38-79t-72-32-58 19q-36-71-85-112T148-8Q98-8 67 22t-32 93 28 129 86 115 129 48q119 0 119-126 0-48-21-101 15-21 43-21 52 0 98 87zm-167 62q-4 53-48 53-69 0-135-134-36-74-36-134t52-63q43 0 79 45t62 101q-34 29-34 73 0 27 14 43t40 16h6zM250 546q-43 22-59 29t-17 9q0 6 20 17t28 11 12-2q18-13 52-38l58-43q23-17 30-20 0-3-10-7t-12-5-31 14l-71 35z"/><glyph unicode="ó" glyph-name="oacute" horiz-adv-x="449" d="M517 246q3 6 6 6 6 0 6-15 0-48-38-79t-72-32-58 19q-36-71-85-112T148-8Q98-8 67 22t-32 93 28 129 86 115 129 48q119 0 119-126 0-48-21-101 15-21 43-21 52 0 98 87zm-167 62q-4 53-48 53-69 0-135-134-36-74-36-134t52-63q43 0 79 45t62 101q-34 29-34 73 0 27 14 43t40 16h6zm81 273q-40-17-106-50t-69-34-12 5-10 7q9 5 65 46t75 55q4 2 12 2t27-11 20-17q0-2-2-3z"/><glyph unicode="ô" glyph-name="ocircumflex" horiz-adv-x="449" d="M517 246q3 6 6 6 6 0 6-15 0-48-38-79t-72-32-58 19q-36-71-85-112T148-8Q98-8 67 22t-32 93 28 129 86 115 129 48q119 0 119-126 0-48-21-101 15-21 43-21 52 0 98 87zm-167 62q-4 53-48 53-69 0-135-134-36-74-36-134t52-63q43 0 79 45t62 101q-34 29-34 73 0 27 14 43t40 16h6zm87 194v-1q0-3-14-11t-23-8q-14 0-38 36t-37 63q-33-32-73-63t-57-32-16 3v1q96 78 146 130 8 9 16 9t24-22 38-56 34-49z"/><glyph unicode="õ" glyph-name="otilde" horiz-adv-x="449" d="M517 246q3 6 6 6 6 0 6-15 0-48-38-79t-72-32-58 19q-36-71-85-112T148-8Q98-8 67 22t-32 93 28 129 86 115 129 48q119 0 119-126 0-48-21-101 15-21 43-21 52 0 98 87zm-167 62q-4 53-48 53-69 0-135-134-36-74-36-134t52-63q43 0 79 45t62 101q-34 29-34 73 0 27 14 43t40 16h6zm98 267q-42-72-80-72-23 0-65 18t-66 18-43-15-19-15q-11 0-11 9t26 39 50 29 71-18 66-19 32 10 19 21 13 10q9 0 9-8 0-3-2-7z"/><glyph unicode="ö" glyph-name="odieresis" horiz-adv-x="449" d="M517 246q3 6 6 6 6 0 6-15 0-48-38-79t-72-32-58 19q-36-71-85-112T148-8Q98-8 67 22t-32 93 28 129 86 115 129 48q119 0 119-126 0-48-21-101 15-21 43-21 52 0 98 87zm-167 62q-4 53-48 53-69 0-135-134-36-74-36-134t52-63q43 0 79 45t62 101q-34 29-34 73 0 27 14 43t40 16h6zm130 242q-20-5-41-27t-33-23q-21 0-21 17t24 52 46 35q11 0 21-15t10-26-6-13zm-187 0q-20-5-41-27t-33-23q-21 0-21 17t24 52 46 35q11 0 21-15t10-26-6-13z"/><glyph unicode="÷" glyph-name="divide" horiz-adv-x="737" d="M456 481q-35-47-41-47-11 0-26 12t-16 25 23 28 50 14q17 0 17-16 0-10-7-16zM201 372h376q1 0 1-5t-18-32-29-28H155q-1 0-1 5t19 32 28 28zm147-179q0-10-5-15t-15-17q-25-31-29-31-11 0-26 12t-16 25 23 28 46 15 22-17z"/><glyph unicode="ø" glyph-name="oslash" horiz-adv-x="449" d="M517 246q3 6 6 6 6 0 6-15 0-48-38-79t-72-32-58 19q-36-72-86-112T145-8h-2L78-111q-3-5-19-5t-17 2v1L111-3Q35 17 35 114q0 64 28 130t86 115 129 48q48 0 78-23l55 87q3 5 19 5t17-2v-1l-70-111q20-31 20-80t-21-102q15-21 43-21 52 0 98 87zm-350-19q-36-74-36-131 0-31 13-48l190 301q-10 12-32 12-69 0-135-134zm157-51q-26 21-32 52L168 32q10-2 15-2 43 0 79 45t62 101z"/><glyph unicode="ù" glyph-name="ugrave" horiz-adv-x="449" d="M416 403l48-1q15 0 19 1-28-19-80-132t-53-164q0-30 20-30 13 0 35 17t39 37 34 51 32 52 16 22q6 0 6-19t-11-36Q397-6 314-6q-56 0-56 83 0 26 4 50Q168-6 83-6 58-6 43 15T27 77t29 135 71 156q10 15 21 18t44 4h48q-25-34-54-92-66-137-66-201 0-38 27-38t66 53 81 137 51 96q37 58 71 58zM289 542q-43 21-59 28t-17 9q0 6 20 17t28 11 12-2q18-13 53-39l57-42q23-17 30-20 0-3-10-7t-12-5-31 14l-71 36z"/><glyph unicode="ú" glyph-name="uacute" horiz-adv-x="449" d="M416 403l48-1q15 0 19 1-28-19-80-132t-53-164q0-30 20-30 13 0 35 17t39 37 34 51 32 52 16 22q6 0 6-19t-11-36Q397-6 314-6q-56 0-56 83 0 26 4 50Q168-6 83-6 58-6 43 15T27 77t29 135 71 156q10 15 21 18t44 4h48q-25-34-54-92-66-137-66-201 0-38 27-38t66 53 81 137 51 96q37 58 71 58zm43 174q-40-17-106-50t-69-34-12 5-10 7q9 5 65 46t75 55q4 2 12 2t27-11 20-17q0-2-2-3z"/><glyph unicode="û" glyph-name="ucircumflex" horiz-adv-x="449" d="M416 403l48-1q15 0 19 1-28-19-80-132t-53-164q0-30 20-30 13 0 35 17t39 37 34 51 32 52 16 22q6 0 6-19t-11-36Q397-6 314-6q-56 0-56 83 0 26 4 50Q168-6 83-6 58-6 43 15T27 77t29 135 71 156q10 15 21 18t44 4h48q-25-34-54-92-66-137-66-201 0-38 27-38t66 53 81 137 51 96q37 58 71 58zm61 102v-1q0-3-14-11t-23-8q-14 0-38 36t-37 63q-33-32-73-63t-57-32-16 3v1q96 78 146 130 8 9 16 9t24-22 38-56 34-49z"/><glyph unicode="ü" glyph-name="udieresis" horiz-adv-x="449" d="M416 403l48-1q15 0 19 1-28-19-80-132t-53-164q0-30 20-30 13 0 35 17t39 37 34 51 32 52 16 22q6 0 6-19t-11-36Q397-6 314-6q-56 0-56 83 0 26 4 50Q168-6 83-6 58-6 43 15T27 77t29 135 71 156q10 15 21 18t44 4h48q-25-34-54-92-66-137-66-201 0-38 27-38t66 53 81 137 51 96q37 58 71 58zm59 151q-20-5-41-27t-33-23q-21 0-21 17t24 52 46 35q11 0 21-15t10-26-6-13zm-187 0q-20-5-41-27t-33-23q-21 0-21 17t24 52 46 35q11 0 21-15t10-26-6-13z"/><glyph unicode="ý" glyph-name="yacute" horiz-adv-x="425" d="M440 390h41q-31-19-63-94-26-63-44-114t-22-63-18-53-24-66q-25-70-58-111t-82-65-99-25-85 19-36 62q0 22 13 39t31 18 30-8 17-18q-18-6-18-42 0-19 13-30t35-12q81 0 136 145l57 152q-47-59-81-88T129 0 83-6 40 15 24 78t24 119 52 122 59 58 84 13q4 0 4-4t-6-10q-41-36-83-129T115 90q0-34 19-34 36 0 92 72t86 144q4 10 11 29t11 26 9 19 12 17 13 12 18 9q29 6 54 6zm24 181q-40-17-106-50t-69-34-12 5-10 7q9 5 65 46t75 55q4 2 12 2t27-11 20-17q0-2-2-3z"/><glyph unicode="þ" glyph-name="thorn" horiz-adv-x="394" d="M466 201Q398 78 332 31T176-17 72 20l-3 11-56-175q-20-59-30-76t-24-23-33-5h-48q30 43 66 147 9 24 26 74t28 78q7 32 15 52t31 95 44 146 53 142 70 116 84 44h30q-18-11-49-64-71-122-126-315 38 58 85 97t88 40q67 0 67-92 0-77-47-153T229 31h8q74 0 157 106 13 16 44 68t33 52q6 0 6-18t-11-38zM278 319q-3 1-9 1-21 0-46-20-41-32-87-106T90 73t29-47q35 0 77 52t70 114 27 93-15 34z"/><glyph unicode="ÿ" glyph-name="ydieresis" horiz-adv-x="425" d="M440 390h41q-31-19-63-94-26-63-44-114t-22-63-18-53-24-66q-25-70-58-111t-82-65-99-25-85 19-36 62q0 22 13 39t31 18 30-8 17-18q-18-6-18-42 0-19 13-30t35-12q81 0 136 145l57 152q-47-59-81-88T129 0 83-6 40 15 24 78t24 119 52 122 59 58 84 13q4 0 4-4t-6-10q-41-36-83-129T115 90q0-34 19-34 36 0 92 72t86 144q4 10 11 29t11 26 9 19 12 17 13 12 18 9q29 6 54 6zm51 155q-20-5-41-27t-33-23q-21 0-21 17t24 52 46 35q11 0 21-15t10-26-6-13zm-187 0q-20-5-41-27t-33-23q-21 0-21 17t24 52 46 35q11 0 21-15t10-26-6-13z"/><glyph unicode="–" glyph-name="endash" horiz-adv-x="781" d="M200 288h569q1 0 1-5t-18-32-29-28H154q-1 0-1 5t18 32 29 28z"/><glyph unicode="—" glyph-name="emdash" horiz-adv-x="1263" d="M200 288h1051q1 0 1-5t-18-32-29-28H154q-1 0-1 5t18 32 29 28z"/><glyph unicode="‘" glyph-name="quoteleft" horiz-adv-x="217" d="M73 476q-22 12-22 42t15 60 31 51 41 47 47 25q3 0 11-2-14-16-43-60t-31-56h6q34 0 34-34t-20-56-47-23q-11 0-22 6z"/><glyph unicode="’" glyph-name="quoteright" horiz-adv-x="159" d="M209 701q22-13 22-43t-15-59-31-51-41-47-47-25q-5 0-11 2 14 16 43 60t31 56h-6q-34 0-34 38 0 29 20 52t47 23q11 0 22-6z"/><glyph unicode="‚" glyph-name="quotesinglbase" horiz-adv-x="282" d="M234 107q22-13 22-43T241 5t-31-51-41-47-47-25q-5 0-11 2 14 16 43 60t31 56h-6q-34 0-34 38 0 29 20 52t47 23q11 0 22-6z"/><glyph unicode="“" glyph-name="quotedblleft" horiz-adv-x="373" d="M72 476q-22 12-22 42t15 60 31 51 41 47 47 25q3 0 11-2-14-16-43-60t-31-56h6q34 0 34-34t-20-56-47-23q-12 0-22 6zm157 0q-22 12-22 42t15 60 31 51 41 47 47 25q3 0 11-2-14-16-43-60t-31-56h6q34 0 34-34t-20-56-47-23q-11 0-22 6z"/><glyph unicode="”" glyph-name="quotedblright" horiz-adv-x="373" d="M184 701q22-13 22-43t-15-59-31-51-41-47-47-25q-5 0-11 2 14 16 43 60t31 56h-6q-34 0-34 38 0 29 20 52t47 23q12 0 22-6zm154 0q22-13 22-43t-15-59-31-51-41-47-47-25q-5 0-11 2 14 16 43 60t31 56h-6q-34 0-34 38 0 29 20 52t47 23q12 0 22-6z"/><glyph unicode="„" glyph-name="quotedblbase" horiz-adv-x="441" d="M234 107q22-13 22-43T241 5t-31-51-41-47-47-25q-5 0-11 2 14 16 43 60t31 56h-6q-34 0-34 38 0 29 20 52t47 23q11 0 22-6zm154 0q22-13 22-43T395 5t-31-51-41-47-47-25q-5 0-11 2 14 16 43 60t31 56h-6q-34 0-34 38 0 29 20 52t47 23q12 0 22-6z"/><glyph unicode="•" glyph-name="bullet" horiz-adv-x="511" d="M128 358q63 77 157 77 75 0 126-53t51-132-62-139-139-62-129 53-51 125 47 131z"/><glyph unicode="‹" glyph-name="guilsinglleft" horiz-adv-x="432" d="M414 521q1 1 2 1t2-3q0-25-91-95T148 300q150-106 190-176 1-2 1-9t-18-23-25-16-6 1Q185 196 89 265q-20 15-20 23t25 23q165 93 320 210z"/><glyph unicode="›" glyph-name="guilsinglright" horiz-adv-x="443" d="M454 333q20-15 20-22t-25-23Q281 194 129 77q-1-1-3-1t-2 4q0 26 92 96t179 122Q247 403 205 475q-1 1-1 8t18 23 24 16 7-1q105-119 201-188z"/></font>
</defs>
</svg>
